<?xml version="1.0" encoding="UTF-8" standalone="no"?>
<svg
   xmlns:dc="http://purl.org/dc/elements/1.1/"
   xmlns:cc="http://creativecommons.org/ns#"
   xmlns:rdf="http://www.w3.org/1999/02/22-rdf-syntax-ns#"
   xmlns:svg="http://www.w3.org/2000/svg"
   xmlns="http://www.w3.org/2000/svg"
   viewBox="0 0 793.70135 793.70135"
   height="793.70135"
   width="793.70135"
   xml:space="preserve"
   id="svg2"
   version="1.1"><metadata
     id="metadata8"><rdf:RDF><cc:Work
         rdf:about=""><dc:format>image/svg+xml</dc:format><dc:type
           rdf:resource="http://purl.org/dc/dcmitype/StillImage" /></cc:Work></rdf:RDF></metadata><defs
     id="defs6"><clipPath
       id="clipPath18"
       clipPathUnits="userSpaceOnUse"><path
         id="path16"
         d="M 0,595.276 H 595.276 V 0 H 0 Z" /></clipPath></defs><g
     transform="matrix(1.3333333,0,0,-1.3333333,0,793.70133)"
     id="g10"><g
       id="g12"><g
         clip-path="url(#clipPath18)"
         id="g14"><g
           transform="translate(595.2754,297.6377)"
           id="g20"><path
             id="path22"
             style="fill:#009945;fill-opacity:1;fill-rule:nonzero;stroke:none"
             d="m 0,0 c 0,-164.38 -133.257,-297.638 -297.638,-297.638 -164.381,0 -297.637,133.258 -297.637,297.638 0,164.381 133.256,297.638 297.637,297.638 C -133.257,297.638 0,164.381 0,0" /></g><g
           transform="translate(281.6689,370.5909)"
           id="g24"><path
             id="path26"
             style="fill:#ffffff;fill-opacity:1;fill-rule:nonzero;stroke:none"
             d="m 0,0 v -6.164 h 0.473 l 0.949,3.318 c 0,3.32 0.474,6.639 -0.473,9.958 L -0.949,9.956 -2.845,8.061 -2.371,5.689 Z m 30.346,1.896 v 8.536 l 0.473,0.946 2.371,-0.473 C 36.51,8.061 39.83,5.214 42.675,2.37 l 1.895,-3.318 h -3.793 c 1.898,-3.32 4.269,-6.165 6.638,-9.485 l 0.476,-0.473 c -0.476,3.793 -1.423,7.587 -0.95,11.853 l -1.421,3.32 1.421,3.794 1.898,1.895 1.895,-1.895 c 1.422,-3.794 3.321,-7.114 4.269,-10.907 l 0.947,-4.267 -0.473,-0.949 -2.845,0.474 c 0,-3.318 0,-6.162 0.473,-9.482 l 0.474,-4.269 c 3.32,-5.215 6.64,-9.955 9.484,-15.173 3.32,-5.689 6.638,-11.38 9.009,-17.542 1.422,-3.795 2.845,-7.589 2.845,-11.38 H 73.97 l -3.321,6.638 c -4.742,9.957 -10.906,19.915 -17.07,29.398 0,-2.845 0.476,-6.165 0.476,-9.01 0.473,-6.164 1.422,-11.853 1.422,-18.017 0,-6.164 -0.474,-12.804 -2.845,-18.966 l -1.898,-1.899 0.476,4.269 c 1.422,3.792 0.946,8.061 0.946,12.327 -0.472,9.484 -1.895,18.967 -3.317,27.975 l -0.475,4.269 c -0.473,2.844 -0.473,5.689 -0.949,8.06 -4.267,6.64 -9.009,12.802 -13.749,19.442 z m 30.346,2.845 -1.421,1.422 1.421,3.793 2.844,-2.369 c 1.899,-3.32 2.847,-7.588 0.949,-11.38 L 62.59,-6.164 v 7.111 z m -82.029,-29.398 -4.743,3.32 c -3.317,4.267 -4.74,9.958 -4.266,15.173 0.473,3.318 0.949,6.638 2.844,9.482 h 0.474 l -0.947,-5.215 c 0,-2.845 0,-6.165 0.473,-9.009 l 0.474,-2.371 3.795,-4.742 2.844,2.371 c 1.423,4.269 3.318,8.06 5.216,12.329 1.422,2.844 2.844,5.689 4.742,8.06 L -8.06,5.689 -6.638,3.793 -7.113,-0.475 C -8.06,-5.217 -7.586,-9.957 -7.586,-14.699 l 2.37,-5.216 H 0 l 5.215,4.267 1.896,6.638 C 7.111,-4.268 6.165,0 5.215,4.741 L 4.742,9.009 7.113,13.75 H 8.06 c 1.424,-2.372 1.898,-5.216 2.371,-7.587 0.475,-3.318 0.948,-7.111 0.948,-10.905 0.474,-3.793 1.423,-7.587 3.794,-10.43 l 3.794,-2.847 2.844,1.898 v 7.586 c -0.473,3.318 -1.422,6.164 -2.372,9.482 l -1.895,5.216 1.895,3.32 1.425,2.844 2.844,-1.422 4.267,-7.112 0.473,-2.846 h -1.895 l -2.371,1.423 1.422,-3.793 c 0.949,-2.845 0.949,-5.216 1.422,-8.061 0.476,-3.793 -0.473,-8.059 -2.371,-11.379 l -6.637,-3.321 c -3.794,0.949 -6.165,3.794 -8.06,6.165 -1.898,-3.793 -5.216,-6.638 -9.009,-8.06 l -7.587,-0.475 -3.793,6.164 c -0.949,3.32 -0.949,7.113 -0.475,10.906 v 2.371 h -0.474 l -1.895,-3.793 c -1.425,-3.793 -2.373,-7.113 -3.796,-10.906 z M 33.19,-84.4 l 0.476,5.689 -3.793,-0.95 2.371,1.899 4.739,1.897 -0.948,-6.164 0.475,-0.949 c 2.844,0.474 5.216,2.371 8.06,3.317 h 1.898 l -1.898,-1.894 c -2.369,-1.899 -4.74,-4.268 -8.06,-3.794 z m -61.165,44.096 c 0.947,-2.845 2.844,-5.215 3.793,-8.061 l 0.949,-5.216 -3.32,-5.215 c -2.844,-2.371 -6.164,-5.216 -9.009,-7.587 v 9.009 h -0.473 c -1.898,-2.844 -2.846,-5.689 -3.794,-9.009 l -0.948,-3.793 -0.475,-0.473 c -5.689,-3.794 -11.38,-7.113 -17.069,-10.434 l -7.587,-3.792 v -0.948 h 1.896 c 8.062,2.371 15.646,4.74 22.76,8.061 0.475,-2.845 0.948,-5.692 2.844,-7.587 2.373,-2.371 5.691,-2.845 9.011,-2.371 5.215,0.949 9.482,3.794 13.275,7.587 3.793,3.319 6.638,7.586 9.484,11.38 1.422,-4.268 3.793,-8.061 7.111,-10.908 5.216,-4.739 12.329,-6.636 18.966,-7.586 l 3.793,0.95 0.95,5.214 -4.267,1.898 -5.215,3.794 v 3.793 l 5.689,3.32 c 6.164,2.369 12.328,4.266 18.965,5.689 l 5.216,1.422 2.371,4.269 0.474,2.844 h -5.216 c -7.111,-0.475 -14.697,-0.475 -21.81,-0.475 h -9.01 c 4.743,2.37 9.959,4.268 15.174,6.164 l 3.32,-0.474 v 1.422 c 2.844,0.949 5.689,1.898 7.586,4.268 l 2.845,6.164 -5.216,6.164 c -2.371,1.898 -5.215,3.32 -8.535,3.32 l -4.267,-2.371 -3.319,-6.638 1.422,-5.691 -12.802,-4.267 -5.691,-2.844 -2.845,-5.217 -0.947,-4.267 2.845,-0.949 c 2.844,0 5.689,0 8.535,-0.473 2.845,0 5.689,-0.476 7.584,-2.371 l 0.95,-0.949 c -3.794,-1.422 -7.112,-3.793 -8.534,-7.587 v -6.165 c -3.795,0.95 -8.062,3.321 -10.433,7.114 -2.371,4.267 -2.844,9.482 -3.793,14.224 -0.474,3.32 -1.422,6.164 -1.896,9.484 v -0.475 c -0.948,6.165 -3.32,11.855 -5.691,17.545 l -1.896,3.319 -2.371,-3.793 -0.475,-5.216 c 1.898,-4.742 3.32,-9.484 4.742,-14.226 l 1.898,-6.162 1.422,-4.742 c -2.845,-5.216 -6.164,-9.484 -9.957,-13.751 -3.32,-2.845 -6.638,-5.216 -10.907,-6.164 l -5.689,0.948 -1.422,4.742 c 4.267,2.371 8.06,5.216 11.38,9.009 2.844,2.845 5.215,5.689 6.165,9.482 0.473,2.845 0.473,6.164 0,9.009 l -0.476,1.424 -1.896,5.215 1.896,0.474 -1.896,4.267 -3.793,4.269 h -1.898 l -1.895,-3.32 -0.949,-3.794 z m 53.579,4.741 5.215,-2.371 1.425,-1.422 -6.64,-1.422 -0.473,4.741 z m -13.751,0 h -0.947 l -1.422,2.846 -1.424,1.423 -0.473,-3.794 -0.476,-1.897 H 6.165 l -1.898,4.742 -0.474,0.949 0.474,-7.114 2.371,-0.948 1.897,2.371 h 0.473 l 1.898,-1.423 2.844,2.371 -1.421,6.165 -0.476,-4.267 z m 137.506,27.028 c -0.473,2.845 -1.422,5.689 -2.844,8.535 l -0.474,2.371 2.371,2.37 c 2.37,-3.319 2.845,-7.587 3.318,-11.38 l -0.948,-6.165 h -0.473 z m -31.295,-45.519 2.372,2.844 c 0.949,2.845 -0.474,6.165 -2.372,8.536 l -1.895,0.473 -1.898,-3.318 3.793,-3.795 z m -14.698,31.768 h 1.423 l 0.948,0.949 3.794,-6.164 1.422,-2.371 0.949,1.895 v 9.011 l 0.948,1.896 2.845,-0.473 v 1.895 l -1.424,2.844 -0.947,0.475 -3.319,-3.319 0.474,-6.164 -0.474,-2.845 -1.897,3.794 -2.845,5.215 -1.423,-0.473 -0.474,-1.898 z m -38.407,11.38 0.476,-0.473 1.421,-3.32 1.896,3.793 0.476,0.949 h 0.473 l 0.474,-5.691 -0.474,-0.949 -1.895,-0.473 -2.371,1.422 -3.321,-1.422 -0.472,5.215 h 0.472 l 0.949,-2.844 0.949,0.473 z m -112.849,-53.579 0.949,0.473 1.896,4.742 v 5.216 l -4.268,0.949 v -3.793 l 2.845,-0.476 v -4.267 z m 120.911,64.01 c 0.473,-4.742 1.422,-9.009 1.896,-13.751 0.948,-7.111 1.422,-14.224 1.896,-21.337 0.474,-7.111 0.474,-14.225 0.948,-20.862 0.475,-2.845 0.475,-5.691 0,-8.06 -0.474,-3.793 -2.371,-7.588 -4.74,-10.433 -3.32,-3.793 -7.114,-7.111 -11.379,-9.482 l -7.114,-2.845 v -0.949 l 5.215,-0.474 c 2.845,0.474 6.164,0.474 9.009,1.897 3.32,1.896 5.691,5.216 8.061,8.06 3.319,3.793 4.741,8.535 5.216,13.277 0.474,4.742 0.474,9.482 0.474,14.224 -0.002,7.609 -0.478,15.21 -1.422,22.76 -0.949,8.06 -1.898,15.646 -1.423,23.708 l 2.371,-0.475 v 2.371 L 80.132,3.793 79.658,5.689 78.236,9.483 76.813,9.009 73.494,5.216 73.021,1.422 Z m 43.622,-33.664 c -3.321,-3.32 -7.587,-5.691 -10.906,-9.01 l -0.948,-2.372 3.318,1.898 c 2.846,2.371 5.691,3.793 8.536,5.689 l 3.793,1.897 v 3.794 z m 14.223,-0.949 c 0.476,-7.586 0.949,-15.173 0.949,-22.759 0,-4.269 -0.473,-8.536 -2.844,-11.855 -0.949,-2.371 -3.793,-4.267 -6.638,-4.267 -3.319,0 -6.64,1.422 -9.011,3.793 l -2.843,3.793 -1.897,-0.948 -3.793,-6.638 c -1.897,-3.793 -3.793,-7.586 -6.164,-10.906 l -2.371,-1.422 -4.267,1.422 c -1.898,1.897 -4.742,3.32 -5.69,6.164 -1.423,4.268 -0.474,8.535 0.473,12.802 l 1.897,6.164 h 0.474 l 0.475,-7.111 0.947,-6.165 0.949,4.268 c 0.948,6.637 -0.949,13.277 -1.423,19.914 -0.473,4.743 -1.422,9.483 -1.895,14.225 -0.949,7.113 -1.897,14.699 -2.846,21.81 -0.474,2.847 -0.474,5.691 -1.423,8.536 -0.946,2.845 -1.422,6.164 -0.946,9.484 l 3.318,6.638 3.319,1.422 2.371,-1.896 1.896,-5.217 C 94.831,2.845 96.254,0 98.149,-2.846 l 0.476,-4.74 -3.794,-1.898 c 0,-3.793 0.949,-8.059 0.949,-11.853 0.474,-5.217 1.423,-10.433 1.896,-15.648 0.473,-3.319 0.949,-6.638 0.949,-9.958 0.949,-5.216 2.371,-10.431 1.422,-15.646 -0.473,-3.794 -1.422,-7.113 -3.319,-10.432 l -3.319,-2.37 -2.371,0.948 2.371,-3.793 h 2.845 l 2.371,3.318 c 1.896,4.269 4.267,8.535 6.638,12.329 l 3.319,4.742 h 2.845 l 5.216,-6.165 4.268,-1.897 3.318,1.897 1.898,5.216 c 0.473,9.008 -0.476,18.492 -0.949,27.502 0,2.371 -0.476,5.215 -0.476,7.586 l -0.473,5.216 c -4.267,5.215 -8.06,9.957 -11.853,15.173 l -2.845,5.689 v 7.588 l 2.845,-1.424 c 1.895,-2.845 4.741,-4.741 7.11,-7.112 L 120.436,0 v -0.948 h -1.422 l 4.266,-6.165 c 0,2.371 -0.473,5.216 -0.947,7.587 l -0.948,4.742 2.844,5.216 1.422,-1.423 c 1.422,-3.793 2.845,-8.062 4.269,-11.855 v -1.896 l -1.898,0.949 c 0,-4.269 0.476,-8.536 0.949,-12.328 2.844,-3.794 5.689,-8.063 8.535,-11.856 -0.475,3.793 -1.424,7.589 -1.898,11.38 -0.948,6.164 -1.421,12.804 -1.895,18.967 l -0.476,3.319 2.371,4.743 1.423,0.948 1.898,-4.742 c 0.949,-3.32 1.422,-6.164 2.371,-9.484 V -5.69 l -0.949,-0.474 -0.949,0.474 v -4.267 c 0,0 0.949,-10.433 1.422,-15.173 0.476,-3.32 0.476,-7.113 0.949,-10.432 1.897,-2.846 3.793,-5.69 5.689,-9.01 2.847,-4.267 6.64,-8.533 8.062,-13.751 l 0.473,-7.111 h -0.473 l -2.844,4.74 c -3.321,4.742 -6.64,9.484 -9.958,13.751 0.473,-2.845 0,-6.162 0.473,-9.009 l -0.473,-5.689 -1.422,-4.742 -0.949,1.898 c 0,3.791 0.473,7.587 0,11.38 -0.473,3.317 -0.949,6.162 -1.422,9.482 l 0.949,2.845 c -3.32,4.741 -6.641,9.008 -9.485,13.277 0,-2.371 0.473,-4.742 0.473,-7.587 M -67.806,-77.29 c -2.844,-2.843 -6.637,-4.265 -10.43,-5.688 -5.216,-1.897 -10.431,-3.319 -15.649,-3.319 -3.318,0 -6.637,0.474 -9.009,2.371 l -2.844,3.793 c -2.371,4.742 -2.845,9.957 -2.371,15.173 0.475,4.266 0.949,9.008 3.32,12.801 v -13.275 c 0.473,-3.793 0.947,-7.587 3.793,-10.431 1.896,-2.371 5.215,-3.32 8.534,-3.32 2.846,0 5.691,0.474 8.535,1.423 4.742,1.422 9.484,3.793 13.277,7.113 2.371,1.896 4.267,4.266 5.215,7.111 l 0.474,7.113 v 9.957 l -2.845,-1.897 c 0,-2.845 0.476,-6.164 -0.473,-9.009 -1.898,-5.691 -6.639,-9.957 -11.38,-12.802 -3.793,-1.897 -8.061,-4.269 -12.803,-3.32 -3.792,0.475 -6.638,3.32 -8.06,6.638 -1.896,2.846 -1.896,5.691 -1.896,8.535 0,2.845 0.473,5.216 0.947,8.062 l 1.897,2.844 v -4.268 c -0.473,-4.267 0.474,-9.009 3.32,-12.802 l 6.163,-1.896 c 3.32,0.474 6.164,1.896 8.535,3.794 l 7.113,6.164 1.422,2.371 0.474,4.266 -6.163,-1.422 -5.691,0.949 -0.949,1.896 v 6.64 l 2.371,6.162 3.794,3.32 4.268,-1.896 5.216,-6.639 3.793,2.37 c 0,7.114 -1.422,14.7 -1.898,21.811 l -0.948,7.113 v 2.371 L -69.228,0 v 1.896 l -0.949,3.32 2.371,2.845 2.371,1.895 1.898,-4.74 c 0.947,-2.845 1.896,-5.691 3.318,-8.535 l 0.476,-3.794 -1.424,-0.949 -1.896,0.949 c 0.473,-5.216 0.949,-10.906 0.949,-16.122 0.473,-4.266 0.473,-9.008 0.947,-13.275 l 3.794,3.318 1.423,-1.422 0.473,-6.164 2.845,-1.896 4.268,2.844 2.845,6.638 h 0.474 l 1.421,-6.638 2.847,-1.895 1.896,2.844 -0.474,3.793 v 1.422 l 2.845,1.896 0.948,-4.74 -0.473,-7.113 -2.846,-2.371 -5.216,0.949 -1.896,1.896 h -0.948 l -2.372,-2.372 -6.164,-1.422 -4.742,3.32 h -0.473 v -8.06 c 0.473,-5.215 0.473,-10.433 -0.949,-15.648 -0.949,-3.794 -3.318,-7.587 -6.165,-9.959 m -12.328,32.718 5.216,0.949 -2.37,2.845 -2.373,0.948 -0.473,-0.474 z m -24.655,3.32 4.742,1.896 v 3.793 h -1.424 c -3.318,-0.947 -6.638,-2.371 -9.483,-4.267 -3.793,-2.371 -7.586,-5.689 -9.957,-9.484 l 4.266,2.846 c 3.794,1.423 8.062,3.319 11.856,5.216 m -9.484,-37.459 -2.372,1.897 c -0.946,3.318 0,6.638 0.95,9.958 l 0.473,7.111 h -0.473 l -1.896,-6.164 c -0.949,-2.844 -1.423,-5.689 -1.423,-9.009 l 0.474,-6.637 3.793,-2.845 4.267,3.793 v 5.216 z m 241.822,-86.296 -6.164,1.895 c -8.535,0 -16.596,-0.473 -25.131,-0.473 v 2.844 l 1.422,3.32 -2.371,3.32 h -1.422 l -1.896,-3.32 1.896,-3.793 v -1.896 c -30.82,-0.475 -61.639,-0.475 -91.987,-0.475 h -17.544 c -15.647,0 -31.293,0.475 -46.942,0.475 -8.06,0 -15.646,0.474 -23.233,0 1.896,-3.32 5.216,-5.218 8.535,-6.639 5.689,-1.896 11.853,-2.372 17.545,-2.845 6.164,-0.474 12.802,0 19.439,-0.474 h 61.168 c 18.49,0 37.457,0.474 55.949,0.947 5.69,0 11.854,0.476 17.545,0.476 v -1.898 l -1.898,-2.844 2.845,-4.742 h 0.475 l 1.896,2.844 c 2.845,0 6.164,0.476 9.009,0 l 2.371,-1.895 2.371,1.895 h 9.958 l 2.371,-1.895 4.266,0.948 1.898,7.111 z m -7.587,-9.958 c -2.845,-0.474 -6.164,0 -9.009,0 l -2.371,1.422 -1.897,-0.949 v -0.947 c -2.845,-0.475 -6.163,0 -9.009,-0.475 l -1.422,2.371 v 2.371 c 8.061,0 16.122,0.473 24.182,0.473 z m 8.536,93.41 1.422,4.265 v 0.95 l -5.216,0.475 -0.948,-2.371 2.371,-1.897 -3.32,-4.742 2.371,-0.948 6.164,2.845 v 1.895 z m 35.562,55.001 c -0.95,8.062 -2.372,15.648 -1.899,23.708 l 2.371,-0.947 -0.472,2.845 -4.268,9.957 -1.424,2.371 -1.422,-0.948 -2.844,-3.794 0.473,-4.268 c 0.476,-3.318 0.949,-7.112 1.422,-10.432 l 0.476,-4.267 0.473,-5.69 c 1.422,-10.431 2.371,-21.337 3.32,-32.242 0.473,-5.215 0.473,-10.906 -1.422,-15.648 -1.423,-4.267 -4.742,-8.06 -8.062,-10.905 -2.845,-2.371 -5.689,-4.269 -8.534,-6.164 l -2.37,-2.371 6.637,0.949 c 4.742,0.946 9.482,3.793 12.329,7.586 2.844,3.793 4.742,8.061 5.688,12.802 0.949,4.267 0.949,9.01 0.949,13.276 0,7.587 -0.473,16.122 -1.421,24.182 m -279.28,-2.844 -3.794,2.844 c -2.844,5.217 -3.793,11.38 -3.793,17.07 0,2.845 0.474,5.216 1.422,8.061 h 0.949 V -9.01 c 0.474,-3.794 0.947,-7.111 1.896,-10.431 l 2.371,-2.845 1.896,1.423 c 1.897,4.266 1.422,8.534 2.371,12.801 0.948,2.845 1.897,5.216 3.793,7.587 l 3.32,2.845 2.371,-1.896 -0.476,-4.267 -1.422,-6.164 0.476,-5.217 0.473,-1.896 2.845,-4.742 2.846,-0.947 c -0.476,3.318 -0.476,6.162 -0.949,9.009 -0.474,2.844 -0.474,5.688 -0.474,8.533 -0.475,2.846 -1.423,5.217 -1.423,7.588 v 4.267 l 2.37,3.794 2.371,-2.845 c 1.423,-2.371 2.845,-5.216 2.845,-8.062 l -1.896,-1.896 1.422,-14.226 0.474,-2.844 v -2.371 l 3.793,6.638 c -0.473,3.319 -1.422,7.112 -1.896,10.432 -0.948,2.845 -0.475,5.689 0.474,8.06 l 0.949,0.475 c 2.845,-2.371 4.266,-6.164 3.32,-9.483 -0.475,-3.794 0.473,-7.114 1.421,-10.907 l 2.372,-3.793 5.215,-0.947 1.423,2.371 c -0.474,4.267 -1.898,9.009 -3.32,13.276 l -1.422,4.742 1.422,2.37 2.371,2.371 3.32,-3.319 1.895,-2.845 v -2.371 l -2.371,-0.475 c 0.949,-3.793 1.898,-7.112 2.371,-10.904 0,-2.845 0.475,-6.165 -1.422,-8.536 l -5.689,-3.793 -6.64,1.896 -1.895,4.742 h -0.473 l -1.425,-2.845 -2.844,-3.793 c 0,-3.32 0.473,-6.638 0.473,-9.958 0,-4.741 0.949,-9.482 0.475,-14.697 l -1.897,-4.742 h -0.474 l -0.473,6.637 -0.475,5.216 c -0.474,4.742 -1.423,9.957 -1.896,15.173 -2.845,0 -5.691,0.949 -7.586,3.32 -2.371,3.317 -2.845,7.586 -2.845,11.853 l 0.474,5.691 v 3.318 h -0.476 l -2.369,-7.587 -0.475,-3.317 c -0.474,-3.32 -0.948,-6.165 -2.845,-9.011 z m 29.397,33.665 3.32,1.422 1.422,-1.422 h 1.896 l 1.422,2.371 -0.947,2.371 -1.897,-2.846 -1.423,4.269 h -0.473 l -2.372,-3.794 h -1.421 l -0.475,3.318 -0.474,0.949 h -0.473 l -0.476,-3.793 z m 49.313,-7.586 c -3.321,-5.216 -8.535,-8.536 -13.751,-11.38 l -4.742,-1.422 v 0.947 l 3.793,2.845 c 4.269,3.319 8.535,6.639 11.855,11.381 -2.371,1.895 -2.371,5.215 -1.422,7.586 l 3.318,3.794 4.269,-0.476 0.946,-4.74 -1.422,-4.742 0.476,-2.371 z m -1.423,7.586 1.423,1.896 -0.474,-3.793 h -0.475 z m -73.969,3.794 V 2.37 l -0.949,-2.371 c 1.424,2.371 2.846,4.742 3.32,7.113 l -0.948,4.742 -2.845,-0.949 -1.423,-2.844 z m 72.547,-20.865 h -0.949 l -2.844,-3.793 -1.423,-5.215 2.371,-3.318 3.792,0.946 2.846,5.216 -2.844,-2.369 -2.846,-0.475 -0.948,2.844 z" /></g></g></g></g></svg>