<?xml version="1.0" standalone="no"?><!DOCTYPE svg PUBLIC "-//W3C//DTD SVG 1.1//EN" "http://www.w3.org/Graphics/SVG/1.1/DTD/svg11.dtd"><svg t="1610593098922" class="icon" viewBox="0 0 1024 1024" version="1.1" xmlns="http://www.w3.org/2000/svg" p-id="6275" xmlns:xlink="http://www.w3.org/1999/xlink" width="200" height="200"><defs><style type="text/css"></style></defs><path d="M15.620708 390.910779c66.427315-274.32021 342.613231-442.859021 616.984697-376.441956s442.84877 342.654236 376.441957 616.984697S666.393126 1074.312541 392.062665 1007.895476l-4.643761-1.148126C115.015654 939.889487-51.616446 664.8722 15.241416 392.4587c0.123014-0.512556 0.256278-1.025113 0.379292-1.547921" fill="#F7F8F8" p-id="6276"></path><path d="M980.262192 321.326116H586.096033v76.012121h419.076402a527.93314 527.93314 0 0 0-24.910243-76.012121m-100.942867-157.867385h-293.182287v77.908579h353.868971a510.065422 510.065422 0 0 0-60.686684-77.908579M142.109388 866.204372h735.292976a567.830534 567.830534 0 0 0 63.885036-77.90858H80.787135a484.878399 484.878399 0 0 0 63.874784 77.90858M631.457279 19.112584c-14.689868-3.833922-30.025557-7.022023-45.361246-9.584805v76.022372h199.958521a486.334059 486.334059 0 0 0-154.597275-63.885036m383.299962 456.175238H586.096033v77.90858h430.547416a453.755971 453.755971 0 0 0 0-77.90858M39.895382 709.054566h939.085419a457.20035 457.20035 0 0 0 24.274673-74.105411v-3.833922H14.349568a462.981987 462.981987 0 0 0 25.545814 77.908579m347.51327 297.692785a488.681567 488.681567 0 0 0 90.07667 17.242398h63.885036a499.517011 499.517011 0 0 0 239.558632-77.908579H236.65555a504.130019 504.130019 0 0 0 150.763354 63.885035" fill="#E72D14" p-id="6277"></path><path d="M547.131492 524.431734l-10.866196-7.667845-10.855946 7.667845 3.833922-12.783158-10.855945-7.657593h13.408476l4.469493-13.418728 4.438738 13.418728h13.408477l-10.855945 7.657593zM493.466832 114.304567l3.833923 15.376694-10.855946-8.303415-10.866197 8.303415 3.833923-13.418728-10.855946-7.657593h13.408477l4.479743-13.418728 4.469492 13.418728h13.418728z m0 117.539445l3.833923 12.772906-10.855946-8.303414-10.866197 8.303414 3.833923-12.772906-10.855946-8.303415h13.408477l4.479743-12.772906 4.469492 12.772906h13.418728z m0 114.351343l4.469493 13.418728-11.491516-8.303415-10.866197 8.303415 4.469493-13.418728-11.491516-7.667844h14.054298l3.833922-12.772907 4.469492 12.772907h12.137337z m0 127.770071l-10.855945-7.667844-10.866197 7.667844 3.833922-12.783158-8.938984-12.137336h13.408477l4.479743-12.772907 3.833922 12.772907h14.054298l-11.501767 8.303414z m-52.383269-302.808098l4.469493 12.80366-10.855946-7.667844-11.501767 7.667844 4.469493-12.772906-10.855946-7.729351h13.418728l4.469492-13.418728 3.833922 13.418728h14.013294z m0 113.705523l4.469493 12.783157-10.855946-7.667844-11.501767 7.667844 4.469493-12.783157-10.855946-8.303415h13.418728l4.469492-12.772907 3.833922 12.772907h14.013294z m0 116.268304l4.469493 12.783158-10.855946-8.303415-11.501767 8.303415 4.469493-12.783158-10.855946-8.303415h13.418728l4.469492-12.772906 3.833922 12.772906h14.013294z m4.469493 123.300579l-10.855946-7.667845-11.501767 7.667845 4.469493-12.783158-10.855946-7.657593h13.418728l4.469492-13.418728 3.833922 13.418728h14.013294l-11.501767 8.938984z m-54.330984-410.127167l4.469493 15.376694-10.80469-8.35467-11.522269 8.303414 4.479743-13.418728-10.866197-7.657593h14.689868l4.479744-13.418728 3.864675 13.418728h14.054298z m0 117.539445l4.469493 12.772906-10.80469-8.303414-11.501767 8.303414 4.479743-12.772906-10.866196-8.303415h14.689867l4.479744-12.772906 3.844173 12.772906h14.054298z m0 114.351343l3.915932 13.418728-13.418728-8.303415-10.855946 8.303415 3.772416-13.418728-10.855946-7.667844h17.877969v-12.772907l4.479743 12.772907h13.408477z m0 127.770071l-9.584805-8.949236-11.491516 7.667845 4.489995-12.772907-9.584806-10.866196h16.606829v-10.251129l3.833922 12.772906h13.418728l-10.855945 8.313666z m-54.330983-415.24248l4.469492 13.418728-8.938984-6.396704-10.855946 8.303414 4.469492-13.408477-8.303414-10.866196h13.408477l3.833922-12.772907 4.469492 12.772907h13.418728z m0 113.705522l4.469492 12.783158-11.491515-7.667844-10.866197 7.667844 4.479743-12.783158-5.689376-8.969737h13.408476l3.833923-13.418728 4.469492 13.418728h13.418728z m0 113.715774l4.469492 12.772906-11.491515-7.657593-10.866197 7.657593 4.479743-12.772906-5.750883-9.584806h13.408477l3.833922-12.772907 4.469492 12.772907h13.418728z m0 116.268304l4.469492 12.772907-11.491515-8.303415-10.866197 8.303415 4.479743-12.772907-5.750883-9.584806h13.408477l3.833922-12.772906 4.469492 12.772906h13.418728z m4.469492 123.290328l-11.491515-7.657594-10.866197 7.657594 4.479743-12.772907-5.750883-8.938984h13.408477l3.833922-13.418728 4.469492 13.418728h13.418728l-13.418728 8.938984z m-51.675941-415.232229l4.469492 12.772907-11.501766-7.667845-10.855946 7.667845 4.428488-12.772907-11.501767-8.313665h14.054298l3.833922-12.772907 4.469493 12.772907h13.418727z m0 116.86287l4.469492 12.772907-11.501766-7.667845-10.855946 7.667845 4.428488-12.731903-11.501767-7.667844h14.054298l3.833922-12.772907 4.469493 12.772907h13.418727z m0 114.986913l4.469492 12.834414-10.866196-7.657594-11.491516 7.657594 4.428488-12.793409-12.137337-8.303415h13.418728l4.510497-12.731902 3.833922 12.772907h14.054298z m0 127.770071l-10.866196-8.303414-10.855946 8.303414 4.469492-12.783158-9.584805-8.303414h14.054297l3.833923-12.772907 4.469492 12.772907h13.418728l-10.855946 8.303414z m-51.747699-298.933171l3.833923 12.80366-10.866197-7.667844-10.855946 7.667844 4.469493-12.772906-11.501767-7.729351h14.054298l3.833922-13.418728 4.479743 13.418728h13.408477z m0 113.705523l3.833923 12.783157-10.866197-7.667844-10.855946 7.667844 4.469493-12.783157-11.501767-8.303415h14.054298l3.833922-12.772907 4.479743 12.772907h13.408477z m0 116.268304l3.833923 12.783158-10.866197-8.303415-10.855946 8.303415 4.469493-12.783158-11.501767-8.303415h14.054298l3.833922-12.772906 4.479743 12.772906h13.408477z m3.833923 123.300579l-10.866197-7.667845-10.855946 7.667845 4.469493-12.783158-11.501767-7.657593h14.054298l3.833922-13.418728 4.479743 13.418728h13.408477l-10.855946 8.938984z m-51.747699-297.692785l3.833922 12.772907-10.855946-8.303414-10.866196 8.303414 3.833922-12.772907-10.855946-8.313665h12.137337l3.833922-12.772907 4.469493 12.772907h13.408476z m0 114.341093l4.469492 12.783157-10.855946-7.667844-11.501766 7.667844 4.469492-12.783157-10.855946-7.657594h13.418728l1.27114-12.096332 3.833922 13.326468h13.418728z m0 127.770071l-10.855946-7.667845-10.866196 7.667845 3.833922-12.772907-10.855946-7.032274h13.459733l4.479743-12.772907 4.469492 12.772907h13.418728l-10.866197 8.303414zM430.227618 49.773711l4.469492-12.772907 3.833922 12.772907h14.013294l-11.501767 7.667844 4.469492 13.418728-10.855945-5.125565-11.501767 8.303415 4.469492-13.408477-10.855945-7.667844zM531.795803 392.82774l4.469493-12.772906 4.438738 12.772906h13.408477l-10.855945 8.303415 3.833922 12.783158-10.866197-8.303415-10.855945 8.303415 3.833922-12.783158-10.855946-8.303415z m0-116.268304l4.469493-12.772907 4.438738 12.772907h13.408477l-10.855945 8.303415 3.833922 12.783157-10.866197-7.667844-10.855945 7.667844 3.833922-12.783157-10.855946-8.303415z m0-113.069952l4.469493-13.418728 4.438738 13.387975h13.408477l-10.855945 7.667844 3.874926 12.834413-10.866196-7.667844-10.855946 7.667844 3.833922-12.772906-10.855945-7.729351z m0-113.715773l4.469493-12.772907 4.438738 12.772907h13.408477l-10.855945 7.667844 3.833922 13.418728-10.866197-5.125565-10.855945 8.303415 3.833922-13.408477-10.855946-7.667844zM136.358505 284.862851l3.833922 12.783157-10.855945-7.667844-10.866197 7.667844 3.833922-12.783157-10.855945-8.303415h14.689867l4.520748-12.772907 3.833922 12.772907h14.003042z m0 116.268304l3.833922 12.783158-10.855945-8.303415-10.866197 8.303415 3.833922-12.783158-10.855945-8.303415h14.689867l4.520748-12.772906 3.833922 12.772906h14.003042z m3.833922 123.300579l-10.855945-7.667845-10.866197 7.667845 3.833922-12.783158-10.855945-7.657593h14.689867l4.520748-13.418728 3.833922 13.418728h14.003042l-12.137336 8.938984zM85.256627 339.16308l3.833922 12.783158-10.866196-7.667844-10.855946 7.667844 3.833922-12.783158-8.949235-7.657593h14.0748l1.916961-10.251129 4.459241 13.398226h13.408477z m3.188101 127.729067l-10.855945-8.303414-11.512018 8.303414 4.479743-12.772907-8.313665-9.584805h13.428979l4.469492-12.772907 3.833922 12.772907h13.418728l-10.814941 8.344419z m-49.820486 58.769722l-10.866197-7.657593-11.491516 7.657593 4.469493-12.772906-10.866197-7.667845h13.418728l4.469492-13.408477 3.833922 13.408477h13.418728l-10.866197 7.667845zM586.096033 9.527779l-47.267955-7.657594-93.285273 5.740632A511.13154 511.13154 0 0 0 190.023165 116.211277v2.562783a397.866816 397.866816 0 0 0-47.913777 44.684671h7.667845l-10.855946 7.667844 3.833922 12.834413-10.866196-7.667844-5.750884 3.198352c-10.251129 11.501767-19.805181 24.274673-29.379735 37.04758l-7.032275 9.584806v8.949235l-6.386453-3.833922a500.859909 500.859909 0 0 0-67.718958 159.671584h8.303415l4.479743-12.772906 3.844173 12.772906h13.398226l-10.855946 8.323917 4.469493 12.783158-10.855946-8.303415-11.53252 8.282913 4.500246-12.762656-6.386454-5.125564A491.152089 491.152089 0 0 0 2.847802 551.894508h583.289236z" fill="#073470" p-id="6278"></path></svg>