<?xml version="1.0" standalone="no"?><!DOCTYPE svg PUBLIC "-//W3C//DTD SVG 1.1//EN" "http://www.w3.org/Graphics/SVG/1.1/DTD/svg11.dtd"><svg t="1610594866323" class="icon" viewBox="0 0 1024 1024" version="1.1" xmlns="http://www.w3.org/2000/svg" p-id="27281" xmlns:xlink="http://www.w3.org/1999/xlink" width="200" height="200"><defs><style type="text/css"></style></defs><path d="M72.9 772.9c-6.2-4.1-7.7-11.3-11-17.2-17.4-30.8-30.5-63.8-40.8-97.7C4.7 603.7-1.7 548.1 0.4 491.7 3 418.6 20.9 349.4 53.2 284.1c8.5-17.2 17.7-33.6 28.5-49.5 4.4-2.8 9-2.1 13.8-2.1h833.4c4.4 0 9-0.8 13.1 1.8 15.9 22.6 28.2 46.9 39.2 72.3 35.1 80.5 48.4 164.3 40.8 251.7-3.6 41.3-12 81.8-25.6 121-10.8 30.8-23.8 60.2-40.5 88.2-1.3 2.1-2.1 4.6-4.6 5.4" fill="#FDC200" p-id="27282"></path><path d="M945 773.2c2.3 0 4.4-0.3 6.7-0.3-0.5 7.2-5.6 12-9.2 17.4-46.9 71.8-107.7 128.7-182.8 170-52.6 29-108.2 47.9-167.6 57.2-67.2 10.3-133.8 7.9-199.7-7.9-67.2-16.1-128.7-45.1-184.1-86.4-50-37.2-91.8-81.8-125.6-134.1-3.3-5.1-7.7-9.7-8.5-16.1l870.8 0.2zM85.2 230.7c27.4-42 60.5-79 98.9-111.3s81-58.4 127.1-78.2C351.2 24 392.5 12 435.8 5.8c40.8-5.9 82-7.2 123-3.6C618 7.3 674.7 22.5 728.5 47.6c61.3 28.7 114.8 67.7 160.7 117.7 19 20.8 36.9 42.6 51.8 66.6-3.6 2.3-7.7 1.3-11.5 1.3H93.7c-3.1 0.1-6.9 1.9-8.5-2.5z" fill="#C40B1E" p-id="27283"></path><path d="M495.9 586.5c-1.8-11 0.5-22 1-32.8 0-0.8 0.3-1.5 0.5-2.3 2.3-4.1 5.6-7.4 8.5-11 7.7-5.4 15.4-10.3 25.4-9.7 1.8 0 3.3-1 4.9-1.5 16.4 4.4 26.1 14.9 29.5 31.5 0.5 3.1 1 6.7 4.6 7.9 16.9 1.5 34.1 0.5 51 0.5 19 0 15.9 1.3 15.9 15.6 0 13.8-0.5 27.7 0.3 41.5 1 18.7-2.1 36.4-13.6 51.8-0.3 0.3-0.8 0.5-1.3 0.5-7.7 4.6-15.1 9.7-23.8 12-6.9 3.6-14.6 1.5-22 2.1h-8.7c-9.7 0.8-15.9-5.6-23.1-10.8-1-0.8-1.5-1.5-2.3-2.3-2.3-3.6-5.4-6.7-7.9-10-3.1-4.6-21 12-23.8 7.2-2.1-9.7-1.3-25.9-2.1-35.6-0.3-3.1-1-38.7-1.5-41.5" fill="#AA1619" p-id="27284"></path><path d="M567.1 569.9c-3.1-1.3-2.3-4.4-3.1-6.9-3.1-13.3-7.7-25.1-22.6-29-2.3-0.5-2.6-4.6-5.9-2.6-4.9-0.3-7.7-2.3-7.7-7.7 0-21.8-0.3-43.3 0-65.1 0-1.3 0.3-2.3 0.8-3.6 2.3-4.4 6.4-4.9 10.8-5.1 29.7-0.8 59.7 1.3 89.7 0.5 6.7 0 7.4 3.6 7.7 9 1 19.7 0.3 39.5 0.8 59.2 2.8 9.2 2.1 18.5-0.8 27.4 2.1 6.7-0.8 13.3-0.3 19.7 0.3 3.1-1.8 4.1-4.9 4.1-21.1 0.1-42.9 1.1-64.5 0.1z" fill="#DADADA" p-id="27285"></path><path d="M596.4 434c-2.6 2.3 3.6 6.9 4.4 9.2 2.6 8.7-11.3 4.6-15.6 6.4-1.3 0.5 25.9-1 24.6 0.3 13.8 0 3.3-0.8 17.4-0.8 11.5 0 11.5 0 11.5 11.8l0.3 57.9c-0.5 0.5-1 0.5-1.8 0-0.3-19.7-1-39.5-1-59.2 0-5.9-2.1-7.7-7.7-7.7-29.7 0-152.3 0.3-171.7 0-14.4-5.6 1.8-21.8-1.8-17.9h141.4z" fill="#9F8604" p-id="27286"></path><path d="M520.2 334.3c1.5-0.5 3.3-0.5 4.9-0.3 4.9-0.3 9.2 1.8 13.8 2.8 5.6-2.1 11.3-3.3 17.2-4.1 11.8-1.5 19.7 5.9 29 10.8 1 0.5 1 2.6 3.3 2.1 12.6-3.3 24.6-1.5 36.1 4.4 11.3 5.9 17.9 17.7 17.2 27.4 0 12.8-24.4 45.9-45.4 56.9H454.9c-10.5-1.3-57.2-59.5-44.1-78.7" fill="#9F8604" p-id="27287"></path><path d="M409.7 356.6c10.5-22.8 51.8-12.6 54.9-12.3 4.4 0.3 8.5-6.2 11.3-9.7 0 0 11.5-7.7 18.5-3.1 7.9 3.3 17.9 6.4 26.1 2.6" fill="#9F8604" p-id="27288"></path><path d="M672.5 540.1c-1.8-0.8-2.8-3.3-5.1-2.3-7.4 3.1-15.4 2.1-23.3 3.3-3.8 0.8-5.6 2.6-7.2 5.4-0.8-9.2-1-18.5 0-27.7h1.8c10.3-0.5 20.5-1.3 30.8-1.8 1-0.5 2.3-1 3.6-1.3 3.3-0.3 6.7-0.3 10 0.3 7.7 2.3 16.1-0.8 23.6 2.8 5.4 5.6 13.3 6.7 19.5 11 5.1 3.3 7.2 6.9 4.9 13.1-1 2.1-1.3 4.4-2.1 6.4-3.1 10.3-9.2 16.4-20.5 16.1" fill="#AB2C17" p-id="27289"></path><path d="M707.6 584c2.1 0.8 4.4 1.5 6.2 2.3 17.9 7.7 15.6 12 11.8 28.5-1.3 5.1-7.9 5.6-9 11 0 0.8-2.3-0.5-2.8-1.5-1.5-3.1-3.1-6.7-1-10 3.3-5.4 0.8-7.9-3.8-10-0.8 0.3-1.3 0.5-2.1 0.5-4.4-1.5-8.7-3.1-13.3-4.4-5.9-2.3-11.5-5.1-17.7-7.4-3.8-0.8-4.4-5.1-7.7-6.9-1.5-1-3.1-1.8-4.4-2.8-8.7-6.7-11.3-17.9-5.4-27.2 1.5-2.3 4.1-4.4 7.4-4.4 2.6 0 4.9-1 6.7-2.8" fill="#AB1719" p-id="27290"></path><path d="M396.9 581.2c-4.6 2.3-25.1 16.4-29.7 18.2-4.4 2.3-9 3.3-13.3 5.4-1.5 0.8-3.3 0.3-5.1 0.3-4.4 2.3-3.8 5.9-2.6 9.5 1.3 3.3 2.1 7.2-1.8 9.2-3.8 2.3-11.8-13.3-14.1-15.4-8.2-6.4 6.7-22 15.9-26.7 12-8.5 37.9-29.7 40.8-32" fill="#AA1819" p-id="27291"></path><path d="M386.7 547.8c5.4 1 14.4 6.2 15.1 12.3 1 7.7 4.4 16.1-5.4 21.3" fill="#AA1819" p-id="27292"></path><path d="M421.8 536.3c-33.6-10.5-61.3 29-69.2 29-10.8-1.5-30.5-16.7-28.7-27.2 1-5.6 22-15.4 26.9-17.7 1.8-2.8 64.9-6.7 71-1.8" fill="#A9231A" p-id="27293"></path><path d="M397.7 675c-1.3 1.8-3.3 2.3-5.4 2.3-15.4 0.3-30.8 0.3-46.1 0-2.1 0-3.8-0.5-5.4-2.3 1-9.2 6.7-16.4 9.2-25.1 1-0.8 2.1-1.8 3.3-1.5 11.3 2.3 22.8 0 34.1 0 1.8 1.5 3.1 5.9 3.1 5.9" fill="#B9A303" p-id="27294"></path><path d="M433.6 675.2c2.3-2.3 1.3-5.1 1.3-7.7v-88.7c0.3-3.1 1-6.4 4.4-7.2 4.1-1 2.3 3.3 4.1 4.9 0.5 0.5 1.3 0.5 2.1 0.8 2.3 2.3 2.1 5.1 2.1 7.7v90c0 3.6 1.8 10.3-6.4 7.9l-7.6-7.7z" fill="#A31518" p-id="27295"></path><path d="M545.1 679.3c7.2 3.1 11.3 11.5 20.3 10.8 5.1 2.3 10.8 1 15.9 2.6 2.3 0.8 6.4 1.5 1.8 4.9-8.5 0.5-15.9 4.4-24.1 5.9-24.9 5.1-49.2 3.6-73.6-3.1-2.1-1.5-4.6-1-6.7-2.1-2.3-1-4.9-2.3-3.8-5.9 1-1 11-0.5 12.6-0.8 3.3-0.3 13.8-4.9 16.9-5.6 1.3-0.3 20.8-14.1 25.4-25.9" fill="#CECECB" p-id="27296"></path><path d="M706.6 604l2.3 0.3c0 16.7-1.8 33.6 1 50.2 0.5 2.8 1.8 4.9 3.3 7.2-0.8 4.1-4.4 3.6-6.9 3.8-11.3 0.3-22.8 0.5-34.1 0-3.1 0-7.4 0.5-6.7-5.1 4.9-4.1 3.8-10.3 4.1-15.1 0.8-18.2 0.3-36.7 0.3-55.1 0-1.3-1-2.8-1.3-4.1 3.6 0 4.1 4.4 7.2 5.1-0.8 15.4-0.3 30.8-0.3 45.9 0 8.5 0.8 8.7 8.7 9h11c9.7-0.5 9.7-0.5 9.7-10.3v-23.6c0.2-2.6-0.4-5.7 1.7-8.2z" fill="#A8920A" p-id="27297"></path><path d="M424.6 571.2c6.9-1.3 8.7 1.8 8.7 8.5-0.3 25.6-0.3 51.3 0 76.9 0 5.4-0.3 10.8-2.8 15.6-4.9-2.6-5.4-7.7-7.2-12 0.5-0.8 1-1.8 1-2.8-4.6-26.7-0.5-53.3-1.8-80.2-0.2-2.2 0.3-4.2 2.1-6z" fill="#B8A100" p-id="27298"></path><path d="M352.8 452c0.8-6.4-6.9-7.9-7.9-13.3 3.3-2.3 7.9 0.3 11.3-2.3 10 1 8.5-6.9 10.3-12.3 2.8-1.5 4.1 0 4.9 2.3 3.1 7.7 3.1 7.7 8.7 1.8l7.2 0.8c-1.8 4.4-2.6 7.9 3.6 9.2 1 0 1.5 1 1 2.3l-4.4 6.2c-4.9 7.4 2.8 5.6 5.6 7.7v2.6c-0.8 1.5-2.1 2.3-3.6 1.8-10.8-2.1-21.8-0.8-32.6-1-3.1 0-6.4 0-8.7-2.6 1.3-3 3.6-1.7 4.6-3.2z" fill="#6D5703" p-id="27299"></path><path d="M687.6 575.5c-14.1-5.1-14.1-5.1-14.6-19.2 0-2.3-0.3-4.9-0.5-7.4v-9c1.8-2.1 3.3-4.1 6.2-1.5 3.3 1.3 6.4 2.3 10 2.3 5.1-0.3 7.9 2.6 8.5 7.4 0.8 7.7 0.8 15.4 0 22.8-0.6 6.4-4.4 6.7-9.6 4.6z" fill="#D9D8D8" p-id="27300"></path><path d="M673 517.1h-3.3c0.5-10.5 2.1-21 1.5-31.5-0.3-6.2 0-13.1-4.1-18.7 0.5-3.8 3.8-3.6 6.4-3.6 10.3-0.5 20.8-0.5 31 0 2.8 0 7.2-0.3 5.9 5.1-3.3 2.3-0.3 4.4-0.3 6.7 0 2.8-0.5 5.6-2.3 8.2-7.7-1-15.1-1.3-22.6-0.8-9 0.5-9.5 1-9.5 10v16.9c-0.6 2.8-0.6 5.6-2.7 7.7z" fill="#A38F09" p-id="27301"></path><path d="M710.2 468.4c0-2.1-1.3-3.1-3.3-3.1h-37.4c-0.8 0-1.5 1-2.3 1.3-4.6-2.3-5.4-6.4-4.1-10.5 1.5-5.4 6.4-4.4 10.3-4.4 4.6-2.3 9 0.8 13.6 0.3 6.9-0.8 13.8-1 20-4.9 0.3 1.5 0 3.3 2.1 4.4 7.5 4.6 7.7 11 1.1 16.9z" fill="#C1A900" p-id="27302"></path><path d="M665.6 660.4c0.3 2.1 1.3 3.1 3.3 3.1h41.8c0.8 0 1.5-1 2.3-1.3 2.6 4.1 0.8 9.7 4.4 13.3-1.3 1.5-3.3 2.1-5.4 2.3-14.9 0.3-29.7 0.5-44.6 0-2.1 0-4.1-0.5-5.4-2.3 1.5-5.4-2.1-11.3 3.6-15.1z" fill="#C1AB01" p-id="27303"></path><path d="M391 463c-2.1 5.9-1 17.9-3.6 23.6-5.4-4.1-11.8-4.1-18.2-4.4-5.9 0-12 1.8-17.4-1.8-4.4-3.1-1-13.8-3.3-17.7" fill="#A48F08" p-id="27304"></path><path d="M351 520.4l0.8-40c10 0 20 0 30.2-0.5 5.1-0.3 3.6 4.4 5.4 6.4v10c-1.3 4.4-0.8 9-0.3 13.6 0.3 2.3 0.8 4.9-1 6.9 0.1 0-35.1 3.6-35.1 3.6z" fill="#B7B2AB" p-id="27305"></path><path d="M390.3 468.4c-0.3-2.6-2.1-3.1-4.4-3.1h-33.3c-2.3 0-3.8 0.5-4.4 3.1-4.9-2.8-7.2-6.7-5.4-12.3 1.5-4.9 5.9-4.4 10-4.4l-3.1 2.6c14.6 1.3 29.2-1 43.3 1.8 2.4 5.1 1.1 8.9-2.7 12.3z" fill="#BDA600" p-id="27306"></path><path d="M687.6 575.5c5.6 0.8 7.9-1.3 7.7-7.4-0.5-6.2-0.3-12.3 0-18.5 0-5.9-2.3-8.7-8.2-8.5-3.1 0-5.9-0.3-7.9-2.8l21 2.3c1-0.5 1.8-0.3 2.6 0.3 7.9 6.7 3.6 16.1 5.9 24.1-1.5 6.2-1.3 12.3-1 18.7-7.5-1-13.4-5.6-20.1-8.2z" fill="#BEB7B1" p-id="27307"></path><path d="M684.8 480.4c5.6 0 11.3 0 16.9-0.3 2.6 0 4.4 0.8 5.4 3.1l-0.5 35.4c-7.9 1-15.9 0.5-23.6-1.3 9.7-2.6 11-9.7 10-18.2-0.3-2.3-0.3-4.4 0-6.7 0.3-4.9-0.3-8.7-6.2-9.7-1.2 0.3-2-0.7-2-2.3z" fill="#C3C3C0" p-id="27308"></path><path d="M657.9 693.4c-3.3-6.2-2.6-7.9 3.1-10.3 7.2-2.8 14.1-3.1 21.5-0.8 5.4 1.8 11.3 1.5 16.7-0.8 7.7-3.1 18.2 0 22.3 5.6 1 1.5 1 3.3 0.5 5.1" fill="#1C5DA4" p-id="27309"></path><path d="M706.8 447.3c-10 10.8-22 7.2-33.6 4.6-0.3-3.8-2.3-6.7-5.1-8.7 10.3-6.4 21.8-5.9 33.3-4.6 2.8 0.3 5.4 2.1 7.2 4.6l-1.8 4.1z" fill="#685303" p-id="27310"></path><path d="M721.7 696.3c0.5 5.1 0.3 8.7-6.7 5.6-6.4-2.8-13.1-2.3-19.5 0-3.8 1.3-7.7 2.1-11.5 0.5-7.4-3.1-14.9-3.1-22.3-0.3-2.8 1-5.4 1.8-6.2-2.3 0-1.5-0.3-3.3 1.3-4.4 8.5-3.1 17.2-4.4 25.9-1.3 5.1 1.8 10.5 0.8 15.4-0.8 8.7-2.7 16.2-0.9 23.6 3z" fill="#27639F" p-id="27311"></path><path d="M400.3 676.3c3.3 7.7 2.8 17.2 2.3 26.7-6.9-2.3-20.3-3.8-27.2-1-4.1 1.8-7.9 1-12.3 0-7.2-2.3-16.4-2.6-23.8 0-7.7 1-2.3-23.8-2.3-26.9" fill="#2C6498" p-id="27312"></path><path d="M683 440.2c-5.1 0-9.2 4.6-14.9 3.1-1.3-0.5-2.3-1.8-2.8-3.1-0.3-6.2 3.1-10.8 9.2-10 10.3 1.3 20.3-0.5 30.5 1 3.3 0.5 6.7 1 7.9 4.4 1.5 4.1-2.3 5.4-4.4 7.7 0.1-0.1-25.5-3.1-25.5-3.1z" fill="#7E2F0E" p-id="27313"></path><path d="M708.6 443.5c5.4-7.7 4.4-10.3-5.4-10.5-4.4 0-9.2-3.3-13.1 1.5-3.8-3.3-8.7-1.3-13.1-2.3-5.9-1.5-10.8 2.1-12 7.9-2.3-6.4-0.5-10 5.4-12 5.6-2.1 12.6-1 16.7-6.7 1-1.3 2.8-1 4.1 0.3 4.1 4.6 10 5.9 15.6 6.7 3.8 0.3 6.9 1.5 7.2 5.9 0.8 4.1 0.8 8.4-5.4 9.2z" fill="#986C02" p-id="27314"></path><path d="M656.9 696l-1 3.3c-0.5-7.4-1-14.9 0.3-22 0.5 0.3 1 0.5 1.3 0.5 14.6-4.1 29.2 3.8 43.8-0.8 6.9-2.3 14.4-0.3 20.5 4.1 0.8 2.3 0.5 4.4-0.5 6.4-7.9-2.8-15.4-8.5-24.6-2.6-4.4 2.6-10.8 2.1-15.9-0.5-8.2-4.4-15.4-0.3-22.6 2.1-3.1 1-2.3 4.4 0 6.7 0.7 1.3-0.8 2-1.3 2.8z" fill="#AFB2B6" p-id="27315"></path><path d="M402.8 695.7c-3.1 0.5-5.6 0-8.7-0.8-6.2-1.3-12.6-2.1-18.7 1-2.8 1.3-5.6 1.8-8.7 1-8.2-2.6-16.7-3.8-25.1-0.8-1.5 0.5-3.3 0-5.1-0.3v-3.1c9.7-4.1 19.2-6.2 29-0.3 2.3 1.3 5.1 1.3 7.2 0 9-5.4 17.7-3.8 26.7-0.3 1.5 0.5 2.3-0.3 3.1-1 0.3 1.6 0.3 3.1 0.3 4.6z" fill="#A4B2C1" p-id="27316"></path><path d="M544.1 334.6c-1 0-4.1 2.1-5.1 2.1-2.3 0-3.1-2.1-5.4-2.1-0.8 0-3.8 0.3-4.4 0-1.5-0.5-10 0-11-1-0.3-0.5 1-7.7 0.8-8.2 0.5-2.8 5.4-5.1 3.6-7.4 2.3-2.3 0.5-4.6-0.5-6.7-2.1-4.4-1.3-8.2 3.3-10.8 2.8-1.5 5.4-2.3 7.7 1 2.3 3.6 7.2 6.4 1 11-2.3 1.5-0.5 3.6 0.5 5.1 0 2.1-2.1 4.4 0.3 6.2 1.5 1 2.8-0.3 3.8-1 2 4.1 0 8.7 5.4 11.8z" fill="#B79401" p-id="27317"></path><path d="M721.7 681.4c-2.8-0.3-5.6 0-8.7-1.5-4.4-2.3-9-2.1-13.6 0-5.6 2.6-12 2.6-17.9 0.5-6.9-2.3-13.3-3.1-19.7 0.8-4.1 2.3-5.6 1-5.6-3.3 1.5-2.3 4.1-2.1 6.4-2.3h55.1c3.8-0.1 5.8 1.4 4 5.8z" fill="#1F5E9B" p-id="27318"></path><path d="M336.7 680.9c9.7-2.1 19-4.4 29 0 4.1 1.5 9.2 0.8 13.8-1 3.6-1.3 7.7-2.6 11.5-1 2.6 1 7.2 2.1 6.2 5.1-1.3 4.1-4.4 0-6.7-0.5-2.6-1-5.6-1.5-7.9-0.5-8.7 4.1-16.7 3.3-25.4 0-3.6-1.3-8.2-1.5-12 1.3-2.3 1.8-5.4 2.3-8.5 1.5v-4.9z" fill="#ABB4BE" p-id="27319"></path><path d="M656.9 696c0.5-1 0.8-2.1 1.3-3.3 6.9-3.6 13.8-4.1 21.3-2.1 5.4 1.5 11 3.1 16.4 0.5 8.7-4.1 17.4-0.3 25.9 1.3v3.3c-21.6-1.5-43.1-1.8-64.9 0.3z" fill="#A8B7C6" p-id="27320"></path><path d="M394.6 529.1c-7.4-4.4-2.1-6.4 1.3-9.2 0.8-0.5 1-1.5 1.8-2.3h4.6c-1.5 5.4 0.8 11 0 16.7" fill="#B7610D" p-id="27321"></path><path d="M385.7 539.9c1 3.1-0.3 6.7 1.5 9.7-0.3 5.4-2.1 10.5-0.5 15.9 0.8 3.1-1.3 3.6-3.8 4.1-3.6 0-4.6-2.6-4.9-5.4-0.5-6.7-0.8-13.3 0-19.7 0.7-4.1 2.8-7.2 7.7-4.6z" fill="#CFCBC8" p-id="27322"></path><path d="M366.4 423.8c0 1 0 2.3 0.3 3.6 1.5 8.5-1 11-10.3 9.7-2.8-2.1-4.4-4.9-6.4-7.7 4.1-4.9 11.6-2 16.4-5.6z m13.6 4.1c-1 3.3-1.3 8.2-6.2 7.4-3.8-0.5-5.1-4.1-3.8-7.9 0.8-2.8-1.5-3.1-3.3-3.3 0-2.3-0.3-4.9 2.6-5.4 2.1-0.3 3.1 1.5 3.3 3.3 0.5 4.1 6.1 2.3 7.4 5.9z" fill="#945409" p-id="27323"></path><path d="M344.9 438.6c-1.3-4.6 0.3-7.7 4.9-9 4.4 0.5 5.4 4.1 6.4 7.7l-11.3 1.3z" fill="#9E2D11" p-id="27324"></path><path d="M391.8 440.2c-0.8-0.5-1.5-1.3-2.3-1.3-2.6-0.3-5.4 0-6.4-3.3-1-3.6 1.8-5.1 4.1-6.7 4.6 2.3 9 5.1 4.6 11.3z" fill="#9D400E" p-id="27325"></path><path d="M538.9 322.8c0 2.1 0 4.1-2.8 4.4-2.3 0-3.8-0.8-4.4-3.1-0.5-2.8-0.8-5.4 3.1-6.2 1.3 1.5 2.9 3.1 4.1 4.9z m-16.4-4.9c6.7 0.3 4.9 3.8 3.1 7.7-3.1 2.3-5.4 1.5-7.4-1.3-0.3-3.6 2.3-4.9 4.3-6.4z" fill="#7C7F43" p-id="27326"></path><path d="M393.1 453.8c-3.1 0-5.9-0.3-9-0.5 0-3.3 1-5.4 3.3-7.2-1.7 5.3 3.6 5.3 5.7 7.7z" fill="#BDA600" p-id="27327"></path><path d="M576.4 623.2c-3.3-4.1-6.7-7.9-12.3-9.7-6.7-1.8-5.9-9.7-8.2-14.9-0.8-1.5 2.1-3.3 3.6-1.8 5.1 4.4 14.4 4.1 14.4 13.8 0 3.1 3.1 6.4 5.6 5.4 2.8-1 2.3-5.4 0.5-7.7-3.3-4.4-4.9-8.2-1-13.3 1.5-2.3-0.8-4.6-2.6-6.4-2.1-1.8-3.6 0-5.1 1.3-2.8 2.3-6.4 3.3-8.7 0.8s0-6.4 1.3-9c2.1-3.3 5.1 0 7.4-0.3 7.7-0.5 15.6 0.8 23.3-0.3 1.3-0.3 2.8-1.3 4.1-1.3 6.9 0 13.3 4.6 21 0.8 3.3-1.8 6.9 4.1 3.8 9-3.1 4.6-3.3 8.7 0.5 12.8 1.3 1.3 1.5 3.3 1 4.9-3.6 11 0 22-0.8 33.1-0.5 8.2-4.4 16.7-8.7 23.8-2.3 3.8-8.5 5.4-10.3 10.8 0 0.5-0.8 1-1 1-9 1-17.2 6.9-26.7 4.1-0.3 0-0.5-0.3-0.8-0.3-12.3 1.8-18.5-9-26.9-14.4-1.3-0.8-3.1-2.3-3.1-3.1 1-9.2-4.6-16.9-4.6-26.4 0-7.7 2.3-15.9 0.3-23.6-1-3.6-1-5.4 2.1-5.4 3.8 0 4.6-7.2 8.2-3.8 3.3 3.1-1.8 5.9-2.8 9-1 3.1-1.3 6.4 0.8 9.2 1.5 2.1 4.6 2.3 6.2 1.3l19.5 0.6z" fill="#C29C04" p-id="27328"></path><path d="M518.4 594c-10.5-6.2-14.9-15.6-14.4-27.4 0.5-11 4.6-20.5 15.4-25.6 10.5-5.1 24.1 0 30 11.3 7.9 15.4 2.6 34.3-11.5 41.5-6.4 2.7-12.8 3.5-19.5 0.2z" fill="#0359B7" p-id="27329"></path><path d="M491.3 559.1c-19.2 0-51 1-50.8-4.6 0.5-4.4 2.6-76.6 10-87.2 4.1-6.4 46.1-5.1 51.5 1.3 3.1 3.8 17.4 52.8 1 70" fill="#6D5F03" p-id="27330"></path><path d="M507.4 683.2c-2.3 3.8-6.7 3.8-10.3 5.6-3.6-0.8-2.8-3.6-2.8-5.9v-91.3c0-2.3-0.8-5.4 3.1-5.6 9.5 12 7.4 26.4 7.4 40.5v50.2c0.1 2.6-0.2 4.9 2.6 6.5z" fill="#C2AB00" p-id="27331"></path><path d="M521.3 667.8c-1.8-3.1-2.8-6.2-2.8-9.7 0-14.4-0.3-28.7-0.3-42.8 0-2.8-1.5-6.7 4.1-6.7 4.6 0 6.7 2.3 6.7 6.7-0.3 11 0.8 22-0.5 33.1-0.3 2.3 0.3 4.9 0.5 7.2 1.5 5.6-1.3 9.5-5.4 12.8-1.1 0.2-1.8-0.1-2.3-0.6z" fill="#BBA501" p-id="27332"></path><path d="M598.4 496.8c-1-1-1-2.1-1.3-3.3-0.3-6.4-2.1-12.8 0.5-19 2.8-2.3 6.2-3.3 8.5-6.4 2.1 3.3 4.4 4.9 8.2 2.1 2.3-1.5 5.9-3.3 8.2-1 2.3 2.8 1.8 6.7-1 9.5-9.7 9.5-7.7 19.7-3.3 31 2.1 5.4-0.5 10.5-5.9 13.3-8.7 4.6-8.7 4.9-3.3 12.8 2.3 3.3 1 5.9-1.3 8.5-3.3-3.6-5.1-8.2-7.4-12.3-3.1-5.4 2.3-7.7 5.1-10.8-5.6-1.8-5.6-1.8-6.2-5.9" fill="#B57E96" p-id="27333"></path><path d="M598.7 516c1.8 5.4 7.7 1.3 11 4.9-2.3 1.5-4.6 2.6-6.7 4.6-2.8 2.8-3.3 4.6-0.3 7.9 2.8 3.1 4.9 6.9 4.6 11.3l-0.5 10c-4.9 1.3-7.7-3.3-12-4.4-2.3-5.6 3.6-4.9 5.9-7.4-2.6-3.1-11 2.8-10-5.9-1.3-2.3-1-4.6-0.8-6.9 1.8-10 1.5-10.3-8.5-11l-1.3-4.1c-1.8-2.8-4.4-5.9-1-9.2 3.8-4.4 8.7-3.8 13.6-2.6 4.4 3.1 6.2 7.5 6 12.8z" fill="#E173A5" p-id="27334"></path><path d="M598.4 474.5v19.2c-6.4 8.7-9.7 9.5-19.2 3.6-2.3-1.3-4.6-2.6-7.2-3.8-2.6-1.3-3.8-3.1-1.5-5.6 2.6-0.5 5.9 0.5 7.2-3.1 1.5-4.1 4.6-6.9 6.4-11.3 1-3.1 7.7-2.8 12-3.3 1.5 1 3.3 1.8 2.3 4.3z" fill="#E56FA5" p-id="27335"></path><path d="M561.5 496.6h-0.3c-4.4 0.5-6.9-1.5-9-5.1-0.5-1-1-2.8-1.8-3.1-6.2-0.8-7.2-2.3-5.6-9.2 1-4.6-0.5-7.2 5.4-5.6 1.3 0.3 2.3-0.5 3.3-1.5 1.3-1.3 2.6-3.6 4.9-1.8 1.5 1 1.8 3.3 0.8 4.6-2.3 4.1 1.3 6.2 2.3 9.2" fill="#AA7489" p-id="27336"></path><path d="M589.4 530.7c-2.1 0.5-2.3 2.1-2.6 3.8-1.3 11-1.3 11-12 8.2-2.6-0.5-4.9-1.5-6.2-3.8-1.3-2.8-2.3-6.2 3.1-5.1 5.4 2.8 5.9-0.3 5.4-4.4-0.5-2.8-2.1-6.4 1.3-7.9 3.3-1.8 7.4-2.1 10.8-0.5 6.1 2.7 1 6.3 0.2 9.7z" fill="#E173A5" p-id="27337"></path><path d="M595.3 471.4c-3.3 0-5.6 4.6-9.5 2.1-0.8-0.5-1.5 0.3-1.3 1 2.1 6.4-3.6 7.7-6.9 10.5-1.5-3.3-5.1-3.6-7.7-5.4-1.5-1-3.3-2.6-2.6-4.9 0.5-2.1 2.6-1.5 4.4-2.1 7.7-1.8 15.9-3.1 17.9-12.8 1.9 4 4.2 7.5 5.7 11.6z" fill="#A96571" p-id="27338"></path><path d="M559.7 513c-0.5 1.8-1 3.3-1.3 4.9-1 3.3-1.8 3.3-5.1 1.5-6.2-3.6-5.6-9-5.9-14.4 0-3.1 2.6-2.6 4.4-2.3 3.3 0.3 6.4 0.8 9.5 1.3 1 2.1-0.5 3.3-1.8 4.1-3.1 1.8-1.3 3.3 0.2 4.9z" fill="#A67C8D" p-id="27339"></path><path d="M571.8 533.7c-4.1 1-3.3 3.3-1 5.4 1.3 1 3.8 1 3.8 3.3-4.1 7.4-3.1 5.9-9.2 1.3-6.4-4.9-1-8.7-1.5-13.1-0.3-1.5 2.1-1.8 3.6-1.8 3.2 0.6 4.8 1.9 4.3 4.9z" fill="#AC6986" p-id="27340"></path><path d="M559.7 513c-2.1-0.3-4.9 1-5.4-2.1-0.5-2.8 1.8-3.6 4.1-4.1 1.5-0.3 2.3-1.5 3.1-3.1l1.3-1.3c3.8 2.1 7.4-3.6 11.3-0.3 1 0.8 3.3 0 3.1 2.3 0 1.5-1.8 2.3-3.3 2.3-4.6 0.8-9.2 2.1-12.6 5.6-0.1 0.2-1.6 0.7-1.6 0.7z" fill="#DB6D9F" p-id="27341"></path><path d="M561.5 496.6c-4.1-3.1-4.1-9-8.7-11.8-1.3-0.8-1.8-1.8-1-3.1 1-1.3 2.3-0.8 3.1 0.3 1.8 2.1 3.8 3.1 6.7 2.6 1 1.5 4.1-0.3 4.4 2.6 0 1-0.3 2.6 0.3 3.6 0.8 1.8 3.6 2.8 2.1 5.4-2.3 3.2-4.8 0.4-6.9 0.4z" fill="#DD6DA0" p-id="27342"></path><path d="M595.1 550.4c5.4-2.6 7.7 3.8 12 4.4 0 2.3-0.8 5.4-3.3 4.1-3.3-2.1-10.8-0.8-8.7-8.5z" fill="#8B5765" p-id="27343"></path><path d="M507.2 403c-0.5-0.5-0.8-2.1-2.1-1.5-0.8 0.3-0.3 1.3-0.5 2.1-4.1 8.5-11 10-19.5 4.4-2.6-5.6 1.8-6.7 5.4-8.2 2.3-1 4.4-2.6 4.4-5.4-1-3.3-3.6-3.1-6.4-3.3-1.8 0-4.1 0.8-3.8-2.3-0.8-4.4-5.9-6.4-4.6-12.3 1-3.8 1.8-6.9 4.6-9.7 9-6.4 19.7-6.7 30.2-7.7 5.4 0.3 4.6 3.8 3.6 7.4-1 3.6-1.3 5.9 2.3 7.9 6.2 3.3-2.3 6.7 0 10-0.3 4.1-3.8 2.6-5.9 3.6-2.8 1.3-6.9 2.1-4.4 6.9 3.8 3.1 8.2 2.3 12.6 2.3 3.3 2.1 2.3 5.1 2.3 7.7l-1.3 1.5c0-0.1-16.9-3.4-16.9-3.4z" fill="#A91718" p-id="27344"></path><path d="M540.5 388.1c-6.7-3.1-7.9-8.2-3.1-14.1 1.8-2.3 2.1-4.6 1.5-6.9-0.8-5.9 2.1-7.7 7.4-6.9 8.2-1 16.1-0.8 22.6 5.6 1 2.6 4.4 0.8 5.6 3.1 3.3 14.6 3.3 14.6-10.3 22.3-4.4 2.3-4.9 4.6-0.3 7.4 0.8 0.3 1.3 0.5 2.1 0.8 3.3 1.3 9.7-0.5 6.9 6.9-2.8 6.4-8.5 4.4-13.3 4.4-4.4-0.3-5.1-3.8-5.6-7.4-0.3-0.8 0-2.3-1-2.3-0.8 0-1 1.3-1.8 2.1-0.3 3.3-3.8 4.6-4.9 7.7-6.4 0.8-10.8-1.8-13.6-7.4-1-2.3-1-4.4 1.8-5.6 1-0.3 1.8-0.5 2.8-0.5 2.8-0.3 6.7 0 7.7-3.1 1.4-3.5-3.7-3.5-4.5-6.1z" fill="#AA1819" p-id="27345"></path><path d="M429 386.6c-0.5-3.6 0.3-7.7 4.1-10.3 3.3-4.9 7.9-6.2 13.3-4.9 3.1 0.5 5.6 0 8.7-0.8 6.9-1.3 13.6-1 16.9 6.7 0.5 0.5 1.5 1 1.5 1.5-1.8 5.4-1 11.8-5.6 16.4-3.3 4.4-1.8 6.4 3.1 6.7 1.8 0 3.3-0.5 5.1 0.3 3.6 2.6 3.6 5.4 0.5 8.5-5.9 6.4-7.4 6.4-17.9-1.3-2.3 2.3 0 7.4-4.4 8.2-2.8 0.8-5.4-0.5-7.4-2.6l-1-3.1c-10.3-1.3-12.3-5.6-15.4-14.4 0 0.1-1.5-10.9-1.5-10.9z" fill="#AA1719" p-id="27346"></path><path d="M597.1 411.7c-7.7 4.6-11.3 4.4-16.7-1.3-1.3-8.2-1.3-8.5 6.2-6.4 2.3 0.8 3.3-1 5.1-1.8 0.5-0.3 1-0.8 1.8-1 3.6-1.8 1-4.4-0.3-4.9-6.4-2.8-7.7-9-10-14.4-0.3-0.8-0.3-1.3-0.3-2.1 0.3-1 1-1.8 2.1-2.3 2.8-7.2 8.7-8.5 15.4-6.9 2.8 0.5 5.6 1 8.7 0.8 6.7-1 12.3 0.3 15.9 6.4 4.6 3.8 2.6 9.7 4.4 14.4 0.5 1.3-10.3 8.5-12 8.2-1.8-0.3-3.3-0.8-5.1-0.5-2.6 0-5.1 0.5-5.9 3.3-0.8 2.6 2.3 3.6 3.3 5.4 1 2.1 5.6 0.8 4.6 3.6-1 2.6-3.8 5.4-7.4 5.1-2.6 0-5.6 1-6.7-2.6-0.3-1-1-2.3-1.5-3.3 0-0.5 0-1-0.3-1-1.3 0.3-1 1.1-1.3 1.3z" fill="#A91718" p-id="27347"></path><path d="M573 436.8c8.2 0.3 9.7 4.4-1.5 6.7-8.7 0-41.8 2.3-41.8 2.3-17.4 0-46.1-2.1-47.9-2.6-9.5-2.6-11-5.6 5.6-9 7.7-0.3 24.1-2.6 42.3-2.6 0 0.1 43.3 5.2 43.3 5.2z" fill="#931B14" p-id="27348"></path><path d="M476.4 359.2c-0.8-5.9 3.6-13.3 9.7-15.1 9-2.8 18.5-3.1 27.7-1 3.8 0.8 5.4 2.8 5.9 6.4 0.8 4.1 0 7.2-4.4 8.7l-38.9 1z" fill="#FAC100" p-id="27349"></path><path d="M569.2 365.8c-7.2-3.1-15.1-4.1-22.6-5.6-1-3.6-6.9-1.5-7.4-6.2-0.8-5.9-1.5-10.5 7.2-12 11.3-2.1 21.5-1.5 30 6.7 3.8 3.6 6.2 8.2 3.8 13.3-2 5.1-7.2 3.3-11 3.8z m55.9 12.1c-4.9-3.3-10.3-5.1-15.9-6.4-3.3-1.8-7.4-2.8-11.3-2.6-6.4 0.3-7.7-4.4-6.2-8.2 1.5-3.3 0.8-11 8.7-9 6.7 1.5 13.3 2.6 19.7 4.9 6.9 2.6 9.5 7.7 11 13.6 1.2 4.3-0.6 7.7-6 7.7z m-178.4-6.4c-4.4 1.8-9.5 1.8-13.3 4.9-2.3 0-5.1 2.8-6.4-0.8-1.3-3.3-1.8-7.4 1-10.5 4.9-5.9 10.5-11 19-11.3 2.3 0 4.4-1 6.4-1.3 11.3-2.1 14.1 1.3 11.8 13.1-0.8 3.6-3.1 3.3-5.4 3.3-4.9-0.3-9.5-0.8-13.1 2.6z" fill="#F9BF00" p-id="27350"></path><path d="M532.8 367.1c-0.5 2.6-0.3 5.9-4.6 5.9-3.6 0-4.4-2.1-3.8-4.9 0.5-3.3 0.8-6.9 5.1-6.9 3.3 0.3 3.3 3.1 3.3 5.9z" fill="#B0AA83" p-id="27351"></path><path d="M537.9 422.5c-1.3 6.7-16.7 6.7-17.7 0 2.3-9.8 16.4-6.9 17.7 0z" fill="#A71817" p-id="27352"></path><path d="M558.4 428.1c-2.1-4.4-2.8-3.3 0-6.4 4.6-0.8 11-1.5 13.3 3.6l-1.3 2.3c-4 2.6-8.1 3.1-12 0.5z" fill="#218957" p-id="27353"></path><path d="M504.9 403.3c-1.5-1-3.6-2.3-2.3-4.6 0.3-0.8 1.8-1.3 2.3-1 2.8 0.8 2.8 3.1 2.1 5.4-0.1-0.1-2.1 0.2-2.1 0.2z" fill="#B87875" p-id="27354"></path><path d="M551.2 402.7c-0.5-2.3-1-4.4 1-6.2 0.3-0.3 1.5 0 1.8 0.3 1.8 2.1 1.5 4.1 0 5.9h-2.8z" fill="#B6827C" p-id="27355"></path><path d="M528.9 359.4c-1.8 0-2.3-1.3-2.3-2.8 0-0.5 0-1.3 0.5-1.5 0.5-0.5 1-0.8 1.5-0.8 1.5 0 3.1 0.3 2.8 2.3 0.1 1-0.9 2.3-2.5 2.8z" fill="#B0AA83" p-id="27356"></path><path d="M597.1 411.7c-1.5-2.1-2.3-3.8 0.5-5.4 0.5-0.3 2.1 0 2.3 0.8 1.8 2.3-1 3.1-2.1 4.6h-0.7z" fill="#A36F6F" p-id="27357"></path><path d="M684.8 480.4c10.3 0.3 11.5 6.7 10.5 14.9-0.5 3.1 0 6.4 0 9.7 0 11.3-0.8 12-12 12.6l-10-0.5v-25.9c-0.3-11.8-0.3-11.8 11.5-10.8z" fill="#DADADA" p-id="27358"></path><path d="M702.5 540.9l-2.6-0.3c-0.5-1.8-1.3-3.3-3.3-3.6-7.4-1-3.8-5.6-3.1-9.2 1.3-5.1 4.6-3.8 7.9-2.3 2.8 1 4.6 2.3 3.1 5.9-1 2.8-1.2 6.4-2 9.5z" fill="#C19405" p-id="27359"></path><path d="M720.9 538.1c0 2.1 0 4.1-0.5 5.9-0.3 1-1 2.1-2.3 2.8-0.5 0.3-2.3-0.5-2.3-0.8 0-4.9-7.4-5.1-6.4-9.2 0.8-3.3 5.4-5.4 9-5.1 3.1 0.2 3.6 3.3 2.5 6.4z" fill="#C08E05" p-id="27360"></path><path d="M656.1 535c-5.1-2.1-7.7-6.2-9.7-10.8-0.5-1 0-2.1 1.3-2.3 1.8-0.5 3.6-0.3 4.6 1 2.3 3.3 4.1 5.6 7.4 1 0.5-0.8 2.1-0.8 2.3 0.5 0.8 2.6-0.8 4.6-1.8 6.9-0.5 2.2-2.1 3.7-4.1 3.7z" fill="#BF8207" p-id="27361"></path><path d="M689.9 522.7c-1.5 3.1-4.1 4.6-3.8 7.7 0 1.5-0.3 3.3-2.3 3.1-1.5-0.3-2.1-1.8-2.3-3.3-1.1-6.5 0.7-8.5 8.4-7.5z" fill="#C08D06" p-id="27362"></path><path d="M668.7 522.2c3.1 3.8 3.6 6.9 1.5 10.3-0.3 0.3-1.5 0.3-1.8 0-2.6-3.1-1.8-6.2 0.3-10.3z" fill="#C08A06" p-id="27363"></path><path d="M695.1 648.3c-5.6 0.3-11.3 0.3-17.2 0.5-3.3 0-5.1-0.8-5.1-4.6v-49c0-2.1 1-3.3 2.6-4.1 6.4 2.1 12.6 4.4 18.2 7.7" fill="#DADADA" p-id="27364"></path><path d="M707.1 637.6c0 11.8 0 11.8-12 10.8-0.5-16.4 1.3-32.8-1.3-49.2 4.4 1 9.2 1.8 12.8 5.1 0-0.1 0.5 33.3 0.5 33.3z" fill="#C2C0BE" p-id="27365"></path><path d="M375.4 648.3c-22 1-22 1-22.3-21 0-7.7-0.3-15.6-0.3-23.6 3.6-4.1 9.7-3.1 13.8-6.2 9.7-1.5 11-0.8 11 8.7 0.3 11 0 22.3 0 33.3 0.1 3.4 0.1 6.5-2.2 8.8z" fill="#D9D9D9" p-id="27366"></path><path d="M363.4 579.6c-10.5 2.8-10.8 2.6-10.8-8.7v-19c0-6.4 2.3-10.5 9.2-10.8 15.6-1.8 15.9-1.8 15.6 14.1 0 6.4 1.8 12.8-2.3 18.7-3.8 1.9-7.9 3.9-11.7 5.7z" fill="#D8D6D6" p-id="27367"></path><path d="M375.4 648.3c0-14.1-0.3-27.9 0.3-41.8 0.3-7.4-2.3-9.7-9-8.7 4.9-2.3 9.5-5.1 14.6-5.9 2.3 2.1 2.3 4.9 2.3 7.4v41.3c0 2.8 0 5.4-2.1 7.7h-6.1z" fill="#ADACAC" p-id="27368"></path><path d="M497.4 428.6c-3.8 0-6.7 1-11.3-2.8 3.1-5.4 9-5.4 12.8-3.8 1.9 1.2-0.5 5.4-1.5 6.6z" fill="#1A895C" p-id="27369"></path><path d="M360.5 518.9c-4.4 0.3-6.2-1.8-5.9-6.4 0.3-8.7 0.3-17.2 0-25.9 0-3.8 1.5-4.9 5.1-5.1 15.6-1 15.6-1 15.6 14.6 0 2.8-0.3 5.4 0 8.2 1 6.4-1 11-7.4 13.3-2.2 1.8-4.8 1.5-7.4 1.3z" fill="#D9D9D9" p-id="27370"></path><path d="M350.3 525.8c2.1 0 3.8 0.8 5.1 2.3 1.3 2.1 0.3 3.6-1.3 5.1-0.8 0.5-1.5 1.3-2.1 2.1-1.3 1.8 1 6.9-3.6 5.4-4.4-1.5-4.9-6.9-5.1-10.8-0.2-3.6 4.2-3.1 7-4.1z" fill="#C08D06" p-id="27371"></path><path d="M386.7 520.1c1.8 5.1-1.3 8.7-3.6 12.6-1.3 2.1-3.3 3.3-5.4 0.8-2.3-2.8-5.4-6.2-4.4-9.7 1.3-3.8 3.6-0.8 5.6 0.5 5.2 3.5 4.2-4.2 7.8-4.2z" fill="#B8710E" p-id="27372"></path><path d="M370 536.3c-2.6 1-4.9 1-6.9 0-4.6-2.1-4.4-6.2-4.1-10.3 0-1.3-0.3-3.6 1.5-3.6 4.4-0.3 3.1 4.4 4.6 6.4 2.1 2.4 3.4 4.9 4.9 7.5z" fill="#BD7C09" p-id="27373"></path><path d="M423.1 456.6c0.5-3.6 3.3-2.8 5.6-2.8H521c4.9 0 6.4 1.8 6.4 6.4-0.3 21 0 42 0 63.3 0 3.6-0.5 5.6-4.9 6.7-6.2 1.5-11.8 4.6-17.7 6.9-3.8 0.3-5.9-0.8-5.9-5.4 0.3-9.7 0-19 2.6-28.7 1.3-4.9 2.8-11-3.8-15.1-3.3-2.1 3.3-5.6 1.3-9-2.1-3.1-5.4-2.3-8.2-2.6-3.6-0.5-6.7-1-6.2-6.2 0.3-6.2-4.9-6.7-9.5-6.9-4.6-0.3-7.7 1.8-6.9 7.2 0.3 1.8-0.5 3.6-1.8 4.6-4.4 2.3-9.5-1-13.6 2.3 0 2.3-0.5 4.9 0.8 7.2 1.3 2.6 0 3.3-2.3 4.9-4.6 3.1-6.4 8.7-2.8 12.8 4.6 5.4 4.1 11.3 4.1 17.4v16.9c-10.3-1.3-6.7 6.4-7.4 11-0.8 5.9 2.1 7.2 7.4 6.9 4.9-0.3 10 0 14.9 0 6.7 3.1 13.6 0.8 20.3 1.5 2.8 0.3 6.2-1 6.7 3.6 0.3 4.1-1.3 6.7-5.1 7.7-4.1 1-8.2 2.1-12.3 2.1-15.1 0-30.2-0.3-45.4 0-6.4 0-8.7-1.8-8.7-8.5 0.3-13.1 0-26.1 0-39.5 0.1-21.1 0.1-42.9 0.1-64.7z" fill="#AB1519" p-id="27374"></path><path d="M457.7 654.5l-0.8-83.1c10 1 10.5 1.3 10.5 11v103.8c0 2.3-1 3.6-3.3 3.8-3.1 0-3.8-1.3-3.8-4.1v-25.4c-0.3-2.2 1.2-5-2.6-6z" fill="#9E1717" p-id="27375"></path><path d="M492.8 690.1l-3.1 1.5c-7.9 1-8.2 1-8.2-6.7V579.4c0-3.1-0.3-5.9 2.3-8.5 5.6-1 7.7 1 7.7 7.2-0.3 33.3 0 66.6 0 100.2 0 4.1 0.3 8 1.3 11.8z" fill="#9F2115" p-id="27376"></path><path d="M452.8 687c-3.3-1.8-4.6-4.1-4.6-8.2 0.3-32.8 0-65.6 0-98.7v-3.6c0.3-2.3 1.3-3.8 3.6-3.6 2.3 0.3 2.3 2.3 2.3 4.1 0 5.9-0.3 12 0 17.7 1.3 16.7 0 33.3 0 50 0 3.3 0 6.9 3.1 9.5v28.2c0 3.1-0.3 5.7-4.4 4.6z" fill="#C4AD00" p-id="27377"></path><path d="M468.5 553.2c0-1.8 0-3.3 0.5-5.1 0.5-3.3-1.8-8.7 4.1-9.2 7.2-0.8 9.7 2.3 10 10 0 1.5 0.3 3.1 0.5 4.4-5.2 2-10.3 2.5-15.1-0.1z" fill="#133DC3" p-id="27378"></path><path d="M470.8 691.4V578.6c0-3.3-0.3-6.7 4.6-6.4 4.6 0 4.1 3.3 4.1 6.2v114.3l-4.1 0.8-4.6-2.1z" fill="#C3B000" p-id="27379"></path><path d="M533.3 689.6c2.6 6.4 5.6 1.3 8.7 0.3 3.3 0 6.9 0 10.3 0.5 3.3 0.8 3.8 2.8 1 5.1-2.3 1.8-4.6 3.1-7.4 3.1-5.6 0-11.8-2.6-15.9 4.4-0.8 1-2.3-3.8-3.1-5.4-0.8-1-6.2 3.1-14.1 3.1-3.3-1-6.9-7.2-0.5-9.7 3.3-0.3 16.4 2.3 16.1-1 1.6-1.2 3.1-1.4 4.9-0.4z" fill="#2A6355" p-id="27380"></path><path d="M524.3 334.6c-2.3-6.2 3.1-4.9 5.9-5.9h1.3c3.3 3.3 3.6 5.9-2.3 5.9h-4.9z" fill="#1F63A5" p-id="27381"></path><path d="M445.9 395.3h2.3c2.8 0.3 7.2-0.8 7.2 2.8 0 3.3-1 7.9-6.4 7.9-3.3 0-5.9-1-7.2-4.4-1.3-3.5 2.6-4.2 4.1-6.3z" fill="#A68503" p-id="27382"></path><path d="M580.7 640.9c0 2.3 0 4.4-1.3 6.4-3.1 4.1-2.8 8.2 0 12.3 1.3 2.1 1.3 4.1 1.3 6.4 0 2.3 0.3 4.6-2.3 5.6-2.3 1-4.4 0.5-5.9-1.5-2.1-2.8-5.1-3.6-8.2-4.6-2.3-1-5.6-0.8-5.6-4.6-0.3-4.1 0.8-8.2 4.4-9.5 6.4-2.3 10.8-5.1 12-12 0.3-1.5 2.3-4.4 4.9-3.6 1.8 0.7 0.5 3.5 0.7 5.1z" fill="#AD1E17" p-id="27383"></path><path d="M587.9 635.8c5.4 2.3 1.3 9.5 5.4 11.8 4.1 2.3 9.2 2.3 12.3 6.2 3.6 4.4 2.1 10.3-3.3 11.8-3.3 1-6.7 2.3-9.2 4.4-5.1 3.3-9.5 1.5-7.7-3.6 4.1-10.3 0.3-20 1.5-30 0.2-0.4 0.5-0.4 1-0.6z" fill="#AD1D17" p-id="27384"></path><path d="M589.2 621.9c2.3-3.3 5.1-6.4 9.5-7.9s7.9-4.1 7.7-9.5c0-2.3 1.8-3.8 3.3-5.6 1.5-1.8 2.8-5.4 5.4-3.6 2.3 1.5-0.8 3.8-1 5.9-0.8 4.1-1.8 8.2 2.1 11.8 2.3 2.3 1 4.6-0.3 6.7-1.3 2.3-4.1 4.9-5.9 3.3-7.2-5.6-13.6-0.5-20.3 0l-0.5-0.5v-0.6z" fill="#AD1F17" p-id="27385"></path><path d="M610 589.6c-2.3 4.9-4.6 9.5-10 11.3-4.6 1.5-7.7 3.8-7.7 9.5 0 2.6-1.8 5.9-5.1 4.4-2.6-1-2.3-4.4-1-6.4 3.1-4.4 2.3-8.7 0.8-13.3-1.5-4.4 2.3-7.9 6.2-5.4 5.7 3.5 10.6 2.2 16.8-0.1z" fill="#AE2117" p-id="27386"></path><path d="M557.4 629.3c6.4 1.8 12.6 1.5 18.7-0.3-1.3 3.1-3.6 5.6-6.4 6.7-5.9 2.3-10 5.4-10.8 12.3-0.3 2.1-2.8 5.1-6.2 3.8-3.1-1-2.3-4.1-1.5-6.4 0.8-2.8 2.3-5.6 0-8.2 0 0.1 6.2-7.9 6.2-7.9z" fill="#AD2017" p-id="27387"></path><path d="M616.4 634c-3.6 4.9-3.6 10.5-1.8 16.4 0.3 1-1 2.1-2.3 2.3-2.8 0-5.4-1.5-5.4-3.8 0-7.9-4.6-11.8-11.5-14.1-1.8-0.5-4.1-2.3-3.3-4.4 1-2.6 3.3-0.5 5.1 0 4.1 0.5 7.7-0.3 11.5-1 3.3-0.8 7.1-0.6 7.7 4.6z" fill="#AE2217" p-id="27388"></path><path d="M589.2 621.9c0 0.3 0.3 0.8 0.3 1-1 9.5-3.8 11-13.3 5.9v-5.9c4-3.5 8.1-5.9 13-1z" fill="#368F53" p-id="27389"></path><path d="M464.6 510.4c1.5 3.1 3.3 5.6 3.6 9.2 0.3 4.9-1.5 7.4-6.4 7.2-7.7-1.5-3.8-7.7-4.4-11.8-0.2-5.1 3.6-4.9 7.2-4.6z" fill="#183B9F" p-id="27390"></path><path d="M490 526.8l-5.4-0.5c0-2.8-0.5-5.9-0.5-8.7 0-3.3 0.8-5.9 4.6-6.2 3.3-0.3 6.2 1.8 6.4 4.9 0 3.8 0.8 8.7-5.1 10.5z" fill="#0C34AB" p-id="27391"></path><path d="M491.3 499.4c-3.1 0-3.8-2.3-4.1-4.4 0-2.3 0-5.4 2.8-5.9 3.3-0.5 4.6 2.1 5.1 5.1 0.8 2.9-1.3 4.2-3.8 5.2z" fill="#9F8D00" p-id="27392"></path><path d="M458.5 488.4c2.6 0.8 4.1 2.3 4.4 4.6 0.3 2.3 0.5 4.6-2.6 5.1-2.6 0.3-3.3-1.8-3.3-3.8 0.2-2.1-0.1-4.4 1.5-5.9z" fill="#A18F00" p-id="27393"></path><path d="M474.9 491.9c1.8 0 3.1 0.8 3.1 2.3 0 2.1-0.5 4.4-2.8 4.4-1.8 0-2.3-2.3-2.6-3.8-0.6-1.6 0.5-2.6 2.3-2.9z" fill="#AD9900" p-id="27394"></path><path d="M541 551.7c1 1 2.3 1.5 2.8 2.6 1.5 3.3 5.1 7.7 4.1 9.5-1.8 3.1-4.1 5.4-4.6 9 0 0.5-2.3 1.3-3.3 1-5.9-1.3-5.4-7.4-6.4-11-0.6-3.4 3.6-8 7.4-11.1z" fill="#918D1A" p-id="27395"></path><path d="M530.2 570.9c3.1 2.1 3.6 6.4 5.4 9.2 2.6 4.4-2.6 8.5-4.9 12.6-1 1.8-4.9 0.5-5.4-1.5-1-4.1-6.7-8.7-0.3-12.8 1.8-1.3 1.8-2.8 2.1-4.4 0.3-1.6 0.6-2.8 3.1-3.1z" fill="#898314" p-id="27396"></path><path d="M525.6 547.8c0 8.5 0 20.3-6.7 19.7-3.3-0.3-2.8-3.8-4.1-5.1-8.2-6.6 6.7-20.7 10.8-14.6" fill="#657234" p-id="27397"></path><path d="M541 686.3c-2.3 2.8-12.3 2.6-18.7 1.8-3.8-0.5-4.6-8.7-1-10 9-2.8 9-2.8 19-1.8 1 4.1 3 6.1 0.7 10z" fill="#D6B37C" p-id="27398"></path><path d="M527.7 687.3c-0.8-4.1-0.8-8.2 1-12 2.6-0.8 3.1 1.8 4.4 2.8 2.8 3.8 1.3 7.7 0.5 11.5l-4.6 0.3-1.3-2.6z" fill="#822C24" p-id="27399"></path><path d="M594.1 504.3c2.6-1.8 2.6-5.1 4.4-7.7 5.1-1.5 5.1-5.4 4.1-9.5-0.8-2.6-1.5-5.4-0.3-7.9 1-2.3 3.3-4.1 6.2-3.3 3.1 1 2.1 3.3 1.5 5.4-1.5 7.4-1 14.6 0.5 22 2.3 13.1 0.8 14.4-11.5 12.3-2.4-3.4-4.2-7-4.9-11.3z" fill="#D7D4D5" p-id="27400"></path><path d="M581.8 399.2h-2.3c-3.8 0-7.2-0.3-6.7-5.4 0.5-3.3 3.3-4.4 5.4-3.1 3.1 1.5 8.2 3.1 4.6 8.5-0.3-0.3-0.8 0-1 0z" fill="#B08D03" p-id="27401"></path><path d="M524.3 394v-2.8c2.1 0 4.1-2.6 6.2 0 1 1 0.8 2.3-0.3 3.3-2 1.8-4.1 0.6-5.9-0.5z" fill="#A91718" p-id="27402"></path></svg>