<?xml version="1.0" standalone="no"?><!DOCTYPE svg PUBLIC "-//W3C//DTD SVG 1.1//EN" "http://www.w3.org/Graphics/SVG/1.1/DTD/svg11.dtd"><svg t="1610593110067" class="icon" viewBox="0 0 1025 1024" version="1.1" xmlns="http://www.w3.org/2000/svg" p-id="6656" xmlns:xlink="http://www.w3.org/1999/xlink" width="200.1953125" height="200"><defs><style type="text/css"></style></defs><path d="M512.021473 0.022971c282.781694 0 511.989513 229.215809 511.989513 511.98452 0 282.781694-229.207819 511.991511-511.989513 511.99151C229.23878 1023.999001 0 794.789185 0 512.007491 0 229.23878 229.23878 0.022971 512.021473 0.022971" fill="#F0F0F0" p-id="6657"></path><path d="M678.29814 378.454823h-66.993062c0.578275 7.371764 0.866914 14.793465 0.866914 22.260109 0 49.511965-12.381487 97.504833-33.962448 131.681013-6.610717 10.545787-17.835653 25.450113-32.803899 35.480546V378.454823h-66.798306v189.421668c-14.970243-10.030433-26.161222-24.935757-32.803899-35.480546-21.580961-34.17618-33.966442-82.169048-33.966443-131.681013 0-7.466645 0.320598-14.887347 0.870909-22.260109h-66.993062a390.865273 390.865273 0 0 0-0.649187 22.260109c0 137.29398 73.317139 244.829246 166.955816 244.829247 93.603721 0 166.983781-107.535266 166.983781-244.829247 0-7.533561-0.289637-14.924301-0.707114-22.260109" fill="#D80027" p-id="6658"></path><path d="M211.500005 244.88218h66.767346v44.532204h66.798306v-44.532204h66.772339v44.532204h66.770341v-44.532204h66.798307v44.532204h66.766346v-44.532204h66.802302v44.532204h66.769342v-44.532204h66.770342v44.532204h160.726621C890.374423 118.151964 715.007146 0 512.021473 0 309.040794 0 133.63057 118.151964 50.837304 289.414384h160.662701v-44.532204z" fill="#6DA544" p-id="6659"></path><path d="M812.542941 734.63855v44.507235h-66.799305v-44.507235h-66.769343v44.507235h-66.802301v-44.507235h-66.766347v44.507235h-66.770341v-44.507235h-66.798307v44.507235h-66.772339v-44.507235h-66.798306v44.507235h-66.767345v-44.507235h-160.698656c82.831218 171.235454 258.240443 289.36145 461.221122 289.36145 202.985673 0 378.323987-118.124998 461.184169-289.36145H812.542941z" fill="#D80027" p-id="6660"></path></svg>