<?xml version="1.0" standalone="no"?><!DOCTYPE svg PUBLIC "-//W3C//DTD SVG 1.1//EN" "http://www.w3.org/Graphics/SVG/1.1/DTD/svg11.dtd"><svg t="1610593985773" class="icon" viewBox="0 0 1024 1024" version="1.1" xmlns="http://www.w3.org/2000/svg" p-id="19630" xmlns:xlink="http://www.w3.org/1999/xlink" width="200" height="200"><defs><style type="text/css"></style></defs><path d="M512 512m-512 0a512 512 0 1 0 1024 0 512 512 0 1 0-1024 0Z" fill="#FFFFFF" p-id="19631"></path><path d="M691.057778 484.977778a185.173333 185.173333 0 1 1-368.896 33.393778 185.173333 185.173333 0 0 1 368.896-33.393778z" fill="#CC303C" p-id="19632"></path><path d="M349.013333 406.215111a92.615111 92.615111 0 1 0 158.72 95.488 92.529778 92.529778 0 0 1 158.179556 95.488 185.144889 185.144889 0 0 1-254.236445 62.151111 183.096889 183.096889 0 0 1-62.634666-253.240889v0.113778z" fill="#005C9E" p-id="19633"></path><path d="M113.948444 353.166222l103.68-153.656889 23.836445 16.042667-103.68 153.6-23.836445-15.985778z m37.063112 24.917334L254.691556 224.426667l23.836444 16.099555-103.68 153.656889-23.836444-16.099555z m36.693333 25.315555l24.092444 15.758222 103.822223-153.827555-24.177778-16.952889-103.708445 155.022222z m566.300444 252.416l48.241778-71.452444 23.779556 15.985777-48.241778 71.480889-23.779556-16.014222z m-55.552 83.797333l48.128-71.480888 23.864889 15.928888-48.042666 71.480889-23.950223-15.928889z m92.103111-58.083555l48.241778-71.395556 23.893334 16.099556-48.241778 71.395555-23.893334-16.099555z m-55.04 82.545778l24.064 15.758222 48.213334-71.338667-24.092445-15.786666-48.184889 71.367111z m92.273778-57.571556l48.128-71.452444 23.779556 16.042666-48.184889 71.395556-23.722667-15.985778z m-55.722666 82.488889l47.985777-71.594667 23.893334 15.928889-48.071111 71.480889-23.808-15.815111z m67.356444-394.752l24.234667-15.758222-103.964445-153.827556-24.064 15.758222 103.793778 153.827556z m-67.185778-179.086222L795.875556 199.111111l48.270222 71.395556-23.808 16.128-48.071111-71.480889z m56.035556 83.399111l24.092444-16.042667 48.298667 71.395556-23.779556 16.099555-48.583111-71.452444z m-129.934222-33.28l23.608888-16.213333 48.156445 71.509333-23.836445 16.042667-47.928888-71.338667z m55.438222 82.432l23.836444-16.042667 48.128 71.452445-23.779555 16.156444-48.184889-71.566222zM187.221333 601.031111l23.779556-15.985778 103.793778 153.6-23.836445 16.099556-103.736889-153.713778zM113.777778 650.410667l23.836444-16.042667 103.537778 153.713778-23.808 16.042666L113.777778 650.410667z m36.664889-23.950223l23.950222-15.815111 48.184889 71.452445-23.836445 16.042666-48.298666-71.68z m103.68 153.258667l24.064-15.758222-48.071111-71.367111-24.092445 15.786666 48.071111 71.338667z" fill="#231815" p-id="19634"></path></svg>